<svg width="17" height="14" viewBox="0 0 17 14" fill="none" xmlns="http://www.w3.org/2000/svg">
<path fill-rule="evenodd" clip-rule="evenodd" d="M15.3389 0.738964C15.1313 0.525814 14.7934 0.525814 14.5873 0.738964L6.66632 8.78015C6.45875 8.99475 6.12012 8.99475 5.91397 8.78015L2.44337 5.17538C2.34065 5.06844 2.20605 5.0157 2.07074 5.01498C1.93401 5.01425 1.79516 5.067 1.69102 5.17538L0.157271 6.58145C0.0552575 6.68839 0 6.82206 0 6.96151C0 7.10168 0.0552575 7.24836 0.15798 7.35457L3.65762 11.1002C3.86448 11.3141 4.20382 11.6609 4.40997 11.8734L5.91468 13.4203C6.12154 13.632 6.45946 13.632 6.66703 13.4203L16.8443 3.05905C17.0519 2.84662 17.0519 2.49763 16.8443 2.28521L15.3389 0.738964Z" fill="#595959"/>
</svg>
