<svg width="560" height="250" viewBox="0 0 560 250" fill="none" xmlns="http://www.w3.org/2000/svg">
<rect width="560" height="249.919" rx="8" fill="#81A490"/>
<path d="M189.045 46H183.915V31.9551C183.915 31.5677 183.921 31.0918 183.932 30.5273C183.943 29.9518 183.959 29.3652 183.981 28.7676C184.004 28.1589 184.026 27.611 184.048 27.124C183.926 27.2679 183.677 27.5169 183.301 27.8711C182.936 28.2142 182.592 28.5241 182.271 28.8008L179.482 31.042L177.009 27.9541L184.828 21.7285H189.045V46ZM212.652 33.8643C212.652 35.8232 212.497 37.5719 212.188 39.1104C211.889 40.6488 211.402 41.9548 210.727 43.0283C210.062 44.1019 209.188 44.9209 208.104 45.4854C207.019 46.0498 205.702 46.332 204.152 46.332C202.204 46.332 200.605 45.8395 199.354 44.8545C198.104 43.8584 197.18 42.4307 196.582 40.5713C195.984 38.7008 195.686 36.4652 195.686 33.8643C195.686 31.2412 195.957 29 196.499 27.1406C197.052 25.2702 197.949 23.8369 199.188 22.8408C200.428 21.8447 202.083 21.3467 204.152 21.3467C206.089 21.3467 207.683 21.8447 208.934 22.8408C210.195 23.8258 211.131 25.2536 211.739 27.124C212.348 28.9834 212.652 31.2301 212.652 33.8643ZM200.782 33.8643C200.782 35.7126 200.882 37.2565 201.081 38.4961C201.291 39.7246 201.64 40.6488 202.127 41.2686C202.614 41.8883 203.289 42.1982 204.152 42.1982C205.005 42.1982 205.674 41.8939 206.161 41.2852C206.659 40.6654 207.013 39.7412 207.224 38.5127C207.434 37.2731 207.539 35.7236 207.539 33.8643C207.539 32.016 207.434 30.472 207.224 29.2324C207.013 27.9928 206.659 27.0632 206.161 26.4434C205.674 25.8125 205.005 25.4971 204.152 25.4971C203.289 25.4971 202.614 25.8125 202.127 26.4434C201.64 27.0632 201.291 27.9928 201.081 29.2324C200.882 30.472 200.782 32.016 200.782 33.8643ZM232.109 33.8643C232.109 35.8232 231.954 37.5719 231.645 39.1104C231.346 40.6488 230.859 41.9548 230.184 43.0283C229.52 44.1019 228.645 44.9209 227.561 45.4854C226.476 46.0498 225.159 46.332 223.609 46.332C221.661 46.332 220.062 45.8395 218.812 44.8545C217.561 43.8584 216.637 42.4307 216.039 40.5713C215.441 38.7008 215.143 36.4652 215.143 33.8643C215.143 31.2412 215.414 29 215.956 27.1406C216.509 25.2702 217.406 23.8369 218.646 22.8408C219.885 21.8447 221.54 21.3467 223.609 21.3467C225.546 21.3467 227.14 21.8447 228.391 22.8408C229.652 23.8258 230.588 25.2536 231.196 27.124C231.805 28.9834 232.109 31.2301 232.109 33.8643ZM220.239 33.8643C220.239 35.7126 220.339 37.2565 220.538 38.4961C220.748 39.7246 221.097 40.6488 221.584 41.2686C222.071 41.8883 222.746 42.1982 223.609 42.1982C224.462 42.1982 225.131 41.8939 225.618 41.2852C226.116 40.6654 226.47 39.7412 226.681 38.5127C226.891 37.2731 226.996 35.7236 226.996 33.8643C226.996 32.016 226.891 30.472 226.681 29.2324C226.47 27.9928 226.116 27.0632 225.618 26.4434C225.131 25.8125 224.462 25.4971 223.609 25.4971C222.746 25.4971 222.071 25.8125 221.584 26.4434C221.097 27.0632 220.748 27.9928 220.538 29.2324C220.339 30.472 220.239 32.016 220.239 33.8643ZM246.702 21.5459C247.82 21.5459 248.855 21.6621 249.807 21.8945C250.758 22.127 251.672 22.4645 252.546 22.9072L250.919 26.7588C250.155 26.4157 249.441 26.1501 248.777 25.9619C248.113 25.7627 247.422 25.6631 246.702 25.6631C246.027 25.6631 245.407 25.7627 244.843 25.9619C244.289 26.1611 243.797 26.4544 243.365 26.8418C242.934 27.2292 242.574 27.7051 242.286 28.2695C241.998 28.834 241.794 29.487 241.672 30.2285H248.362V33.1504H241.423C241.423 33.2279 241.417 33.3441 241.406 33.499C241.395 33.654 241.39 33.8311 241.39 34.0303C241.39 34.2074 241.39 34.3789 241.39 34.5449C241.401 34.6999 241.412 34.8714 241.423 35.0596H247.316V38.0146H241.705C241.893 38.889 242.214 39.6305 242.668 40.2393C243.133 40.8369 243.73 41.2907 244.461 41.6006C245.191 41.8994 246.049 42.0488 247.034 42.0488C247.909 42.0488 248.722 41.9658 249.475 41.7998C250.227 41.6227 250.936 41.3903 251.6 41.1025V45.3525C250.969 45.6735 250.26 45.917 249.475 46.083C248.689 46.249 247.776 46.332 246.735 46.332C244.965 46.332 243.382 46.0111 241.987 45.3691C240.604 44.7161 239.464 43.7699 238.567 42.5303C237.671 41.2907 237.062 39.7855 236.741 38.0146H234.467V35.0596H236.426C236.415 34.9378 236.398 34.7829 236.376 34.5947C236.365 34.3955 236.359 34.2074 236.359 34.0303C236.359 33.8643 236.359 33.7038 236.359 33.5488C236.37 33.3828 236.382 33.25 236.393 33.1504H234.467V30.2285H236.675C236.963 28.4134 237.56 26.8584 238.468 25.5635C239.375 24.2686 240.532 23.278 241.938 22.5918C243.343 21.8945 244.931 21.5459 246.702 21.5459ZM277.266 40.4883C277.266 41.75 276.967 42.818 276.369 43.6924C275.783 44.5557 274.903 45.2142 273.729 45.668C272.556 46.1107 271.095 46.332 269.347 46.332C268.052 46.332 266.939 46.249 266.01 46.083C265.091 45.917 264.161 45.6403 263.221 45.2529V41.0693C264.228 41.5231 265.307 41.8994 266.458 42.1982C267.62 42.486 268.638 42.6299 269.513 42.6299C270.498 42.6299 271.201 42.486 271.621 42.1982C272.053 41.8994 272.269 41.512 272.269 41.0361C272.269 40.7262 272.18 40.4495 272.003 40.2061C271.837 39.9515 271.472 39.6693 270.907 39.3594C270.343 39.0384 269.457 38.6234 268.251 38.1143C267.089 37.6273 266.132 37.1348 265.379 36.6367C264.637 36.1387 264.084 35.5521 263.719 34.877C263.365 34.1908 263.188 33.3219 263.188 32.2705C263.188 30.555 263.852 29.2656 265.18 28.4023C266.519 27.528 268.306 27.0908 270.542 27.0908C271.693 27.0908 272.789 27.207 273.829 27.4395C274.881 27.6719 275.96 28.0426 277.066 28.5518L275.539 32.2041C274.62 31.8057 273.752 31.4792 272.933 31.2246C272.125 30.9701 271.3 30.8428 270.459 30.8428C269.717 30.8428 269.159 30.9424 268.782 31.1416C268.406 31.3408 268.218 31.6452 268.218 32.0547C268.218 32.3535 268.312 32.6191 268.5 32.8516C268.699 33.084 269.076 33.3441 269.629 33.6318C270.193 33.9085 271.018 34.2682 272.103 34.7109C273.154 35.1426 274.067 35.5964 274.842 36.0723C275.617 36.5371 276.214 37.1182 276.635 37.8154C277.055 38.5016 277.266 39.3926 277.266 40.4883ZM291.543 27.0908C293.635 27.0908 295.323 27.9043 296.606 29.5312C297.901 31.1582 298.549 33.5433 298.549 36.6865C298.549 38.7894 298.244 40.5602 297.636 41.999C297.027 43.4268 296.186 44.5059 295.112 45.2363C294.039 45.9668 292.805 46.332 291.41 46.332C290.514 46.332 289.744 46.2214 289.103 46C288.461 45.7676 287.913 45.4743 287.459 45.1201C287.005 44.7549 286.612 44.3675 286.28 43.958H286.015C286.103 44.4007 286.17 44.8545 286.214 45.3193C286.258 45.7842 286.28 46.238 286.28 46.6807V54.168H281.217V27.4395H285.334L286.048 29.8467H286.28C286.612 29.3486 287.016 28.8893 287.492 28.4688C287.968 28.0482 288.538 27.7161 289.202 27.4727C289.877 27.2181 290.658 27.0908 291.543 27.0908ZM289.916 31.1416C289.031 31.1416 288.328 31.3242 287.808 31.6895C287.287 32.0547 286.906 32.6025 286.662 33.333C286.43 34.0635 286.302 34.9876 286.28 36.1055V36.6533C286.28 37.8486 286.391 38.8613 286.612 39.6914C286.845 40.5215 287.227 41.1523 287.758 41.584C288.3 42.0156 289.042 42.2314 289.982 42.2314C290.757 42.2314 291.394 42.0156 291.892 41.584C292.39 41.1523 292.76 40.5215 293.004 39.6914C293.258 38.8503 293.386 37.8265 293.386 36.6201C293.386 34.805 293.104 33.4382 292.539 32.5195C291.975 31.6009 291.1 31.1416 289.916 31.1416ZM310.336 27.0576C312.826 27.0576 314.735 27.5999 316.063 28.6846C317.392 29.7692 318.056 31.4183 318.056 33.6318V46H314.52L313.54 43.4766H313.407C312.876 44.1406 312.334 44.6829 311.78 45.1035C311.227 45.5241 310.59 45.834 309.871 46.0332C309.152 46.2324 308.277 46.332 307.248 46.332C306.152 46.332 305.167 46.1217 304.293 45.7012C303.43 45.2806 302.749 44.6387 302.251 43.7754C301.753 42.901 301.504 41.7943 301.504 40.4551C301.504 38.485 302.196 37.0352 303.579 36.1055C304.963 35.1647 307.038 34.6445 309.805 34.5449L313.025 34.4453V33.6318C313.025 32.6579 312.771 31.944 312.262 31.4902C311.753 31.0365 311.044 30.8096 310.137 30.8096C309.24 30.8096 308.36 30.9368 307.497 31.1914C306.634 31.446 305.771 31.7669 304.907 32.1543L303.23 28.7344C304.215 28.2142 305.317 27.8047 306.534 27.5059C307.763 27.207 309.03 27.0576 310.336 27.0576ZM313.025 37.4004L311.066 37.4668C309.428 37.5111 308.288 37.8044 307.646 38.3467C307.016 38.889 306.7 39.6029 306.7 40.4883C306.7 41.263 306.927 41.8164 307.381 42.1484C307.835 42.4694 308.427 42.6299 309.157 42.6299C310.242 42.6299 311.155 42.3089 311.896 41.667C312.649 41.0251 313.025 40.112 313.025 38.9277V37.4004ZM333.645 27.0908C333.899 27.0908 334.192 27.1074 334.524 27.1406C334.868 27.1628 335.144 27.196 335.354 27.2402L334.973 31.9883C334.807 31.9329 334.569 31.8942 334.259 31.8721C333.96 31.8389 333.7 31.8223 333.479 31.8223C332.826 31.8223 332.189 31.9053 331.569 32.0713C330.961 32.2373 330.413 32.5085 329.926 32.8848C329.439 33.25 329.051 33.737 328.764 34.3457C328.487 34.9434 328.349 35.6794 328.349 36.5537V46H323.285V27.4395H327.12L327.867 30.5605H328.116C328.481 29.9297 328.935 29.3542 329.478 28.834C330.031 28.3027 330.656 27.8822 331.354 27.5723C332.062 27.2513 332.826 27.0908 333.645 27.0908ZM346.378 27.0908C348.093 27.0908 349.571 27.4229 350.811 28.0869C352.05 28.7399 353.007 29.6917 353.683 30.9424C354.358 32.193 354.695 33.7204 354.695 35.5244V37.9814H342.726C342.781 39.4092 343.207 40.5326 344.004 41.3516C344.812 42.1595 345.93 42.5635 347.357 42.5635C348.542 42.5635 349.626 42.4417 350.611 42.1982C351.596 41.9548 352.609 41.5895 353.649 41.1025V45.0205C352.731 45.4743 351.768 45.8063 350.761 46.0166C349.765 46.2269 348.553 46.332 347.125 46.332C345.266 46.332 343.617 45.9889 342.178 45.3027C340.75 44.6165 339.627 43.5706 338.808 42.165C338 40.7594 337.596 38.9886 337.596 36.8525C337.596 34.6833 337.961 32.8792 338.691 31.4404C339.433 29.9906 340.462 28.9059 341.779 28.1865C343.096 27.4561 344.629 27.0908 346.378 27.0908ZM346.411 30.6934C345.426 30.6934 344.607 31.0088 343.954 31.6396C343.312 32.2705 342.941 33.2611 342.842 34.6113H349.947C349.936 33.8587 349.798 33.1891 349.532 32.6025C349.278 32.016 348.89 31.5511 348.37 31.208C347.861 30.8649 347.208 30.6934 346.411 30.6934ZM369.354 27.0908C371.336 27.0908 372.929 27.6331 374.136 28.7178C375.342 29.7913 375.945 31.5179 375.945 33.8975V46H370.882V35.1592C370.882 33.8311 370.638 32.8294 370.151 32.1543C369.675 31.4792 368.923 31.1416 367.894 31.1416C366.344 31.1416 365.287 31.6673 364.723 32.7188C364.158 33.7702 363.876 35.2865 363.876 37.2676V46H358.812V27.4395H362.681L363.361 29.8135H363.644C364.042 29.1715 364.535 28.6514 365.121 28.2529C365.719 27.8545 366.377 27.5612 367.097 27.373C367.827 27.1849 368.58 27.0908 369.354 27.0908Z" fill="white"/>
<path d="M181.1 73.6963H184.501V75.6211H181.1V79.0049H179.175V75.6211H175.773V73.6963H179.175V70.2686H181.1V73.6963ZM199.68 81H190.697V79.1104L193.923 75.8496C194.573 75.1816 195.095 74.625 195.487 74.1797C195.886 73.7285 196.173 73.3184 196.349 72.9492C196.53 72.5801 196.621 72.1846 196.621 71.7627C196.621 71.2529 196.478 70.8721 196.19 70.6201C195.909 70.3623 195.531 70.2334 195.057 70.2334C194.559 70.2334 194.075 70.3477 193.606 70.5762C193.138 70.8047 192.648 71.1299 192.139 71.5518L190.662 69.8027C191.031 69.4863 191.421 69.1875 191.831 68.9062C192.247 68.625 192.728 68.3994 193.272 68.2295C193.823 68.0537 194.482 67.9658 195.25 67.9658C196.094 67.9658 196.817 68.1182 197.421 68.4229C198.03 68.7275 198.499 69.1436 198.827 69.6709C199.155 70.1924 199.319 70.7842 199.319 71.4463C199.319 72.1553 199.179 72.8027 198.897 73.3887C198.616 73.9746 198.206 74.5547 197.667 75.1289C197.134 75.7031 196.489 76.3389 195.733 77.0361L194.081 78.5918V78.7148H199.68V81ZM211.448 73.7842H216.546V80.4463C215.872 80.6689 215.172 80.8477 214.445 80.9824C213.719 81.1113 212.896 81.1758 211.976 81.1758C210.698 81.1758 209.614 80.9238 208.724 80.4199C207.833 79.916 207.156 79.1719 206.693 78.1875C206.23 77.2031 205.999 75.9932 205.999 74.5576C205.999 73.21 206.257 72.0439 206.772 71.0596C207.294 70.0752 208.053 69.3135 209.049 68.7744C210.051 68.2354 211.272 67.9658 212.714 67.9658C213.394 67.9658 214.064 68.0391 214.727 68.1855C215.389 68.332 215.989 68.5225 216.528 68.7568L215.623 70.9365C215.23 70.7373 214.782 70.5703 214.278 70.4355C213.774 70.3008 213.247 70.2334 212.696 70.2334C211.905 70.2334 211.217 70.415 210.631 70.7783C210.051 71.1416 209.6 71.6514 209.277 72.3076C208.961 72.958 208.803 73.7256 208.803 74.6104C208.803 75.4482 208.917 76.1924 209.146 76.8428C209.374 77.4873 209.734 77.9941 210.227 78.3633C210.719 78.7266 211.36 78.9082 212.151 78.9082C212.538 78.9082 212.863 78.8906 213.127 78.8555C213.396 78.8145 213.648 78.7734 213.883 78.7324V76.0518H211.448V73.7842ZM223.454 70.9893C224.362 70.9893 225.145 71.165 225.801 71.5166C226.457 71.8623 226.964 72.3662 227.321 73.0283C227.679 73.6904 227.857 74.499 227.857 75.4541V76.7549H221.521C221.55 77.5107 221.775 78.1055 222.197 78.5391C222.625 78.9668 223.217 79.1807 223.973 79.1807C224.6 79.1807 225.174 79.1162 225.695 78.9873C226.217 78.8584 226.753 78.665 227.304 78.4072V80.4814C226.817 80.7217 226.308 80.8975 225.774 81.0088C225.247 81.1201 224.605 81.1758 223.85 81.1758C222.865 81.1758 221.992 80.9941 221.23 80.6309C220.475 80.2676 219.88 79.7139 219.446 78.9697C219.019 78.2256 218.805 77.2881 218.805 76.1572C218.805 75.0088 218.998 74.0537 219.385 73.292C219.777 72.5244 220.322 71.9502 221.02 71.5693C221.717 71.1826 222.528 70.9893 223.454 70.9893ZM223.472 72.8965C222.95 72.8965 222.517 73.0635 222.171 73.3975C221.831 73.7314 221.635 74.2559 221.582 74.9707H225.344C225.338 74.5723 225.265 74.2178 225.124 73.9072C224.989 73.5967 224.784 73.3506 224.509 73.1689C224.239 72.9873 223.894 72.8965 223.472 72.8965ZM236.893 78.082C236.893 78.75 236.734 79.3154 236.418 79.7783C236.107 80.2354 235.642 80.584 235.021 80.8242C234.399 81.0586 233.626 81.1758 232.7 81.1758C232.015 81.1758 231.426 81.1318 230.934 81.0439C230.447 80.9561 229.955 80.8096 229.457 80.6045V78.3896C229.99 78.6299 230.562 78.8291 231.171 78.9873C231.786 79.1396 232.325 79.2158 232.788 79.2158C233.31 79.2158 233.682 79.1396 233.904 78.9873C234.133 78.8291 234.247 78.624 234.247 78.3721C234.247 78.208 234.2 78.0615 234.106 77.9326C234.019 77.7979 233.825 77.6484 233.526 77.4844C233.228 77.3145 232.759 77.0947 232.12 76.8252C231.505 76.5674 230.998 76.3066 230.6 76.043C230.207 75.7793 229.914 75.4688 229.721 75.1113C229.533 74.748 229.439 74.2881 229.439 73.7314C229.439 72.8232 229.791 72.1406 230.494 71.6836C231.203 71.2207 232.149 70.9893 233.333 70.9893C233.942 70.9893 234.522 71.0508 235.073 71.1738C235.63 71.2969 236.201 71.4932 236.787 71.7627L235.979 73.6963C235.492 73.4854 235.032 73.3125 234.599 73.1777C234.171 73.043 233.734 72.9756 233.289 72.9756C232.896 72.9756 232.601 73.0283 232.401 73.1338C232.202 73.2393 232.103 73.4004 232.103 73.6172C232.103 73.7754 232.152 73.916 232.252 74.0391C232.357 74.1621 232.557 74.2998 232.85 74.4521C233.148 74.5986 233.585 74.7891 234.159 75.0234C234.716 75.252 235.199 75.4922 235.609 75.7441C236.02 75.9902 236.336 76.2979 236.559 76.667C236.781 77.0303 236.893 77.502 236.893 78.082ZM242.975 81.1758C242.002 81.1758 241.173 81 240.487 80.6484C239.802 80.291 239.28 79.7402 238.923 78.9961C238.565 78.252 238.387 77.2998 238.387 76.1396C238.387 74.9385 238.589 73.96 238.993 73.2041C239.403 72.4424 239.969 71.8828 240.689 71.5254C241.416 71.168 242.257 70.9893 243.212 70.9893C243.892 70.9893 244.478 71.0566 244.97 71.1914C245.468 71.3203 245.901 71.4756 246.271 71.6572L245.479 73.7314C245.058 73.5615 244.665 73.4238 244.302 73.3184C243.938 73.207 243.575 73.1514 243.212 73.1514C242.743 73.1514 242.354 73.2627 242.043 73.4854C241.732 73.7021 241.501 74.0303 241.349 74.4697C241.196 74.9092 241.12 75.46 241.12 76.1221C241.12 76.7725 241.202 77.3115 241.366 77.7393C241.53 78.167 241.768 78.4863 242.078 78.6973C242.389 78.9023 242.767 79.0049 243.212 79.0049C243.769 79.0049 244.264 78.9316 244.697 78.7852C245.131 78.6328 245.553 78.4219 245.963 78.1523V80.4463C245.553 80.7041 245.122 80.8887 244.671 81C244.226 81.1172 243.66 81.1758 242.975 81.1758ZM250.929 67.3242V70.1104C250.929 70.5967 250.911 71.0596 250.876 71.499C250.847 71.9385 250.823 72.249 250.806 72.4307H250.946C251.157 72.0908 251.406 71.8154 251.693 71.6045C251.986 71.3936 252.309 71.2383 252.66 71.1387C253.012 71.0391 253.39 70.9893 253.794 70.9893C254.503 70.9893 255.121 71.1152 255.648 71.3672C256.176 71.6133 256.586 72.0029 256.879 72.5361C257.172 73.0635 257.318 73.749 257.318 74.5928V81H254.638V75.2607C254.638 74.5576 254.509 74.0273 254.251 73.6699C253.993 73.3125 253.595 73.1338 253.056 73.1338C252.517 73.1338 252.092 73.2598 251.781 73.5117C251.471 73.7578 251.251 74.124 251.122 74.6104C250.993 75.0908 250.929 75.6797 250.929 76.377V81H248.248V67.3242H250.929ZM264.13 70.9893C265.038 70.9893 265.82 71.165 266.477 71.5166C267.133 71.8623 267.64 72.3662 267.997 73.0283C268.354 73.6904 268.533 74.499 268.533 75.4541V76.7549H262.196C262.226 77.5107 262.451 78.1055 262.873 78.5391C263.301 78.9668 263.893 79.1807 264.648 79.1807C265.275 79.1807 265.85 79.1162 266.371 78.9873C266.893 78.8584 267.429 78.665 267.979 78.4072V80.4814C267.493 80.7217 266.983 80.8975 266.45 81.0088C265.923 81.1201 265.281 81.1758 264.525 81.1758C263.541 81.1758 262.668 80.9941 261.906 80.6309C261.15 80.2676 260.556 79.7139 260.122 78.9697C259.694 78.2256 259.48 77.2881 259.48 76.1572C259.48 75.0088 259.674 74.0537 260.061 73.292C260.453 72.5244 260.998 71.9502 261.695 71.5693C262.393 71.1826 263.204 70.9893 264.13 70.9893ZM264.147 72.8965C263.626 72.8965 263.192 73.0635 262.847 73.3975C262.507 73.7314 262.311 74.2559 262.258 74.9707H266.02C266.014 74.5723 265.94 74.2178 265.8 73.9072C265.665 73.5967 265.46 73.3506 265.185 73.1689C264.915 72.9873 264.569 72.8965 264.147 72.8965ZM276.294 70.9893C277.343 70.9893 278.187 71.2764 278.825 71.8506C279.464 72.4189 279.783 73.333 279.783 74.5928V81H277.103V75.2607C277.103 74.5576 276.974 74.0273 276.716 73.6699C276.464 73.3125 276.065 73.1338 275.521 73.1338C274.7 73.1338 274.141 73.4121 273.842 73.9688C273.543 74.5254 273.394 75.3281 273.394 76.377V81H270.713V71.1738H272.761L273.121 72.4307H273.271C273.481 72.0908 273.742 71.8154 274.053 71.6045C274.369 71.3936 274.718 71.2383 275.099 71.1387C275.485 71.0391 275.884 70.9893 276.294 70.9893ZM285.224 67.3242V73.4414C285.224 73.8105 285.209 74.1797 285.18 74.5488C285.15 74.918 285.118 75.2871 285.083 75.6562H285.118C285.3 75.3984 285.484 75.1436 285.672 74.8916C285.865 74.6396 286.07 74.3965 286.287 74.1621L289.038 71.1738H292.062L288.159 75.4365L292.299 81H289.205L286.375 77.0186L285.224 77.9414V81H282.543V67.3242H285.224ZM297.757 70.9893C298.665 70.9893 299.447 71.165 300.104 71.5166C300.76 71.8623 301.267 72.3662 301.624 73.0283C301.981 73.6904 302.16 74.499 302.16 75.4541V76.7549H295.823C295.853 77.5107 296.078 78.1055 296.5 78.5391C296.928 78.9668 297.52 79.1807 298.275 79.1807C298.902 79.1807 299.477 79.1162 299.998 78.9873C300.52 78.8584 301.056 78.665 301.606 78.4072V80.4814C301.12 80.7217 300.61 80.8975 300.077 81.0088C299.55 81.1201 298.908 81.1758 298.152 81.1758C297.168 81.1758 296.295 80.9941 295.533 80.6309C294.777 80.2676 294.183 79.7139 293.749 78.9697C293.321 78.2256 293.107 77.2881 293.107 76.1572C293.107 75.0088 293.301 74.0537 293.688 73.292C294.08 72.5244 294.625 71.9502 295.322 71.5693C296.02 71.1826 296.831 70.9893 297.757 70.9893ZM297.774 72.8965C297.253 72.8965 296.819 73.0635 296.474 73.3975C296.134 73.7314 295.938 74.2559 295.885 74.9707H299.646C299.641 74.5723 299.567 74.2178 299.427 73.9072C299.292 73.5967 299.087 73.3506 298.812 73.1689C298.542 72.9873 298.196 72.8965 297.774 72.8965ZM313.067 70.9893C313.976 70.9893 314.758 71.165 315.414 71.5166C316.07 71.8623 316.577 72.3662 316.935 73.0283C317.292 73.6904 317.471 74.499 317.471 75.4541V76.7549H311.134C311.163 77.5107 311.389 78.1055 311.811 78.5391C312.238 78.9668 312.83 79.1807 313.586 79.1807C314.213 79.1807 314.787 79.1162 315.309 78.9873C315.83 78.8584 316.366 78.665 316.917 78.4072V80.4814C316.431 80.7217 315.921 80.8975 315.388 81.0088C314.86 81.1201 314.219 81.1758 313.463 81.1758C312.479 81.1758 311.605 80.9941 310.844 80.6309C310.088 80.2676 309.493 79.7139 309.06 78.9697C308.632 78.2256 308.418 77.2881 308.418 76.1572C308.418 75.0088 308.611 74.0537 308.998 73.292C309.391 72.5244 309.936 71.9502 310.633 71.5693C311.33 71.1826 312.142 70.9893 313.067 70.9893ZM313.085 72.8965C312.563 72.8965 312.13 73.0635 311.784 73.3975C311.444 73.7314 311.248 74.2559 311.195 74.9707H314.957C314.951 74.5723 314.878 74.2178 314.737 73.9072C314.603 73.5967 314.397 73.3506 314.122 73.1689C313.853 72.9873 313.507 72.8965 313.085 72.8965ZM325.135 70.9893C325.27 70.9893 325.425 70.998 325.601 71.0156C325.782 71.0273 325.929 71.0449 326.04 71.0684L325.838 73.582C325.75 73.5527 325.624 73.5322 325.46 73.5205C325.302 73.5029 325.164 73.4941 325.047 73.4941C324.701 73.4941 324.364 73.5381 324.036 73.626C323.714 73.7139 323.424 73.8574 323.166 74.0566C322.908 74.25 322.703 74.5078 322.551 74.8301C322.404 75.1465 322.331 75.5361 322.331 75.999V81H319.65V71.1738H321.681L322.076 72.8262H322.208C322.401 72.4922 322.642 72.1875 322.929 71.9121C323.222 71.6309 323.553 71.4082 323.922 71.2441C324.297 71.0742 324.701 70.9893 325.135 70.9893ZM330.505 67.3242V70.1104C330.505 70.5967 330.487 71.0596 330.452 71.499C330.423 71.9385 330.399 72.249 330.382 72.4307H330.522C330.733 72.0908 330.982 71.8154 331.27 71.6045C331.562 71.3936 331.885 71.2383 332.236 71.1387C332.588 71.0391 332.966 70.9893 333.37 70.9893C334.079 70.9893 334.697 71.1152 335.225 71.3672C335.752 71.6133 336.162 72.0029 336.455 72.5361C336.748 73.0635 336.895 73.749 336.895 74.5928V81H334.214V75.2607C334.214 74.5576 334.085 74.0273 333.827 73.6699C333.569 73.3125 333.171 73.1338 332.632 73.1338C332.093 73.1338 331.668 73.2598 331.357 73.5117C331.047 73.7578 330.827 74.124 330.698 74.6104C330.569 75.0908 330.505 75.6797 330.505 76.377V81H327.824V67.3242H330.505ZM343.68 70.9717C344.998 70.9717 346.009 71.2588 346.712 71.833C347.415 72.4072 347.767 73.2803 347.767 74.4521V81H345.895L345.376 79.6641H345.306C345.024 80.0156 344.737 80.3027 344.444 80.5254C344.151 80.748 343.814 80.9121 343.434 81.0176C343.053 81.123 342.59 81.1758 342.045 81.1758C341.465 81.1758 340.943 81.0645 340.48 80.8418C340.023 80.6191 339.663 80.2793 339.399 79.8223C339.136 79.3594 339.004 78.7734 339.004 78.0645C339.004 77.0215 339.37 76.2539 340.103 75.7617C340.835 75.2637 341.934 74.9883 343.398 74.9355L345.104 74.8828V74.4521C345.104 73.9365 344.969 73.5586 344.699 73.3184C344.43 73.0781 344.055 72.958 343.574 72.958C343.1 72.958 342.634 73.0254 342.177 73.1602C341.72 73.2949 341.263 73.4648 340.806 73.6699L339.918 71.8594C340.439 71.584 341.022 71.3672 341.667 71.209C342.317 71.0508 342.988 70.9717 343.68 70.9717ZM345.104 76.4473L344.066 76.4824C343.199 76.5059 342.596 76.6611 342.256 76.9482C341.922 77.2354 341.755 77.6133 341.755 78.082C341.755 78.4922 341.875 78.7852 342.115 78.9609C342.355 79.1309 342.669 79.2158 343.056 79.2158C343.63 79.2158 344.113 79.0459 344.506 78.7061C344.904 78.3662 345.104 77.8828 345.104 77.2559V76.4473ZM353.216 81H350.535V67.3242H353.216V81ZM360.177 79.04C360.47 79.04 360.754 79.0107 361.029 78.9521C361.311 78.8936 361.589 78.8203 361.864 78.7324V80.7275C361.577 80.8564 361.22 80.9619 360.792 81.0439C360.37 81.1318 359.907 81.1758 359.403 81.1758C358.817 81.1758 358.29 81.082 357.821 80.8945C357.358 80.7012 356.992 80.3701 356.723 79.9014C356.459 79.4268 356.327 78.7676 356.327 77.9238V73.1865H355.044V72.0527L356.521 71.1562L357.294 69.082H359.008V71.1738H361.759V73.1865H359.008V77.9238C359.008 78.2988 359.113 78.5801 359.324 78.7676C359.541 78.9492 359.825 79.04 360.177 79.04ZM367.911 70.9893C368.819 70.9893 369.602 71.165 370.258 71.5166C370.914 71.8623 371.421 72.3662 371.778 73.0283C372.136 73.6904 372.314 74.499 372.314 75.4541V76.7549H365.978C366.007 77.5107 366.232 78.1055 366.654 78.5391C367.082 78.9668 367.674 79.1807 368.43 79.1807C369.057 79.1807 369.631 79.1162 370.152 78.9873C370.674 78.8584 371.21 78.665 371.761 78.4072V80.4814C371.274 80.7217 370.765 80.8975 370.231 81.0088C369.704 81.1201 369.062 81.1758 368.307 81.1758C367.322 81.1758 366.449 80.9941 365.688 80.6309C364.932 80.2676 364.337 79.7139 363.903 78.9697C363.476 78.2256 363.262 77.2881 363.262 76.1572C363.262 75.0088 363.455 74.0537 363.842 73.292C364.234 72.5244 364.779 71.9502 365.477 71.5693C366.174 71.1826 366.985 70.9893 367.911 70.9893ZM367.929 72.8965C367.407 72.8965 366.974 73.0635 366.628 73.3975C366.288 73.7314 366.092 74.2559 366.039 74.9707H369.801C369.795 74.5723 369.722 74.2178 369.581 73.9072C369.446 73.5967 369.241 73.3506 368.966 73.1689C368.696 72.9873 368.351 72.8965 367.929 72.8965ZM380.075 70.9893C381.124 70.9893 381.968 71.2764 382.606 71.8506C383.245 72.4189 383.564 73.333 383.564 74.5928V81H380.884V75.2607C380.884 74.5576 380.755 74.0273 380.497 73.6699C380.245 73.3125 379.847 73.1338 379.302 73.1338C378.481 73.1338 377.922 73.4121 377.623 73.9688C377.324 74.5254 377.175 75.3281 377.175 76.377V81H374.494V71.1738H376.542L376.902 72.4307H377.052C377.263 72.0908 377.523 71.8154 377.834 71.6045C378.15 71.3936 378.499 71.2383 378.88 71.1387C379.267 71.0391 379.665 70.9893 380.075 70.9893Z" fill="white"/>
<path fill-rule="evenodd" clip-rule="evenodd" d="M-1.74846e-06 91L0 111C5.52285 111 10 106.523 10 101C10 95.4772 5.52285 91 -1.74846e-06 91Z" fill="#F6F5F1"/>
<rect x="26" y="100.5" width="508" height="1" fill="white"/>
<path fill-rule="evenodd" clip-rule="evenodd" d="M560 111V91C554.477 91 550 95.4772 550 101C550 106.523 554.477 111 560 111Z" fill="#F6F5F1"/>
<path fill-rule="evenodd" clip-rule="evenodd" d="M169.413 119.227C169.755 119.077 170.126 119 170.5 119C170.874 119 171.245 119.077 171.587 119.227L185.329 125.241C185.784 125.441 186.175 125.762 186.46 126.165C186.465 126.173 186.471 126.181 186.476 126.189C186.49 126.209 186.504 126.23 186.518 126.251C186.806 126.695 186.96 127.213 186.959 127.741C186.959 127.742 186.959 127.741 186.959 127.741V143.151C186.959 143.673 186.81 144.184 186.529 144.624C186.247 145.064 185.845 145.415 185.369 145.632L172.266 151.63C172.266 151.63 172.266 151.63 172.266 151.63C172.072 151.719 171.868 151.784 171.66 151.826C171.503 151.886 171.332 151.919 171.154 151.919C170.991 151.919 170.833 151.891 170.687 151.84C170.481 151.805 170.279 151.747 170.085 151.666C170.085 151.666 170.085 151.666 170.085 151.666L155.711 145.637C155.214 145.429 154.791 145.078 154.495 144.63C154.198 144.182 154.041 143.657 154.041 143.121C154.041 143.121 154.041 143.121 154.041 143.121V127.741C154.04 127.213 154.194 126.695 154.482 126.251C154.771 125.807 155.183 125.456 155.669 125.242L169.413 119.227ZM156.862 128.999V143.061L169.743 148.463V134.401L156.862 128.999ZM172.565 134.369V148.39L184.138 143.093V129.074L179.421 131.232C179.352 131.271 179.281 131.303 179.207 131.33L172.565 134.369ZM178.736 128.443L182.095 126.906L170.5 121.831L167.585 123.107L178.736 128.443ZM164.171 124.601L175.394 129.971L171.13 131.923L159.033 126.85L164.171 124.601Z" fill="white"/>
<path d="M158.216 176.919L161.969 168.702H157.04V166.925H164.211V168.251L160.431 176.919H158.216ZM172.168 171.922C172.168 172.729 172.104 173.449 171.977 174.082C171.854 174.715 171.653 175.253 171.375 175.695C171.102 176.137 170.742 176.475 170.295 176.707C169.848 176.939 169.306 177.056 168.668 177.056C167.866 177.056 167.207 176.853 166.692 176.447C166.177 176.037 165.797 175.449 165.551 174.684C165.305 173.913 165.182 172.993 165.182 171.922C165.182 170.842 165.293 169.919 165.517 169.153C165.744 168.383 166.114 167.793 166.624 167.383C167.134 166.973 167.816 166.768 168.668 166.768C169.465 166.768 170.122 166.973 170.637 167.383C171.156 167.788 171.541 168.376 171.792 169.146C172.043 169.912 172.168 170.837 172.168 171.922ZM167.28 171.922C167.28 172.683 167.321 173.319 167.403 173.829C167.49 174.335 167.633 174.715 167.834 174.971C168.035 175.226 168.312 175.354 168.668 175.354C169.019 175.354 169.295 175.228 169.495 174.978C169.7 174.722 169.846 174.342 169.933 173.836C170.019 173.326 170.062 172.688 170.062 171.922C170.062 171.161 170.019 170.525 169.933 170.015C169.846 169.504 169.7 169.121 169.495 168.866C169.295 168.606 169.019 168.477 168.668 168.477C168.312 168.477 168.035 168.606 167.834 168.866C167.633 169.121 167.49 169.504 167.403 170.015C167.321 170.525 167.28 171.161 167.28 171.922ZM178.177 166.85C178.637 166.85 179.063 166.897 179.455 166.993C179.847 167.089 180.223 167.228 180.583 167.41L179.913 168.996C179.599 168.855 179.305 168.745 179.031 168.668C178.758 168.586 178.473 168.545 178.177 168.545C177.899 168.545 177.644 168.586 177.411 168.668C177.183 168.75 176.98 168.871 176.803 169.03C176.625 169.19 176.477 169.386 176.358 169.618C176.24 169.851 176.156 170.119 176.105 170.425H178.86V171.628H176.003C176.003 171.66 176.001 171.708 175.996 171.771C175.992 171.835 175.989 171.908 175.989 171.99C175.989 172.063 175.989 172.134 175.989 172.202C175.994 172.266 175.998 172.337 176.003 172.414H178.43V173.631H176.119C176.197 173.991 176.329 174.296 176.516 174.547C176.707 174.793 176.953 174.98 177.254 175.107C177.555 175.23 177.908 175.292 178.313 175.292C178.674 175.292 179.008 175.258 179.318 175.189C179.628 175.117 179.92 175.021 180.193 174.902V176.652C179.934 176.785 179.642 176.885 179.318 176.953C178.995 177.021 178.619 177.056 178.19 177.056C177.461 177.056 176.81 176.924 176.235 176.659C175.666 176.39 175.196 176.001 174.827 175.49C174.458 174.98 174.207 174.36 174.075 173.631H173.139V172.414H173.945C173.941 172.364 173.934 172.3 173.925 172.223C173.92 172.141 173.918 172.063 173.918 171.99C173.918 171.922 173.918 171.856 173.918 171.792C173.923 171.724 173.927 171.669 173.932 171.628H173.139V170.425H174.048C174.166 169.677 174.412 169.037 174.786 168.504C175.16 167.971 175.636 167.563 176.215 167.28C176.794 166.993 177.448 166.85 178.177 166.85ZM151.072 190.925C151.979 190.925 152.727 191.034 153.314 191.253C153.907 191.472 154.347 191.802 154.634 192.244C154.921 192.686 155.064 193.244 155.064 193.919C155.064 194.375 154.978 194.773 154.805 195.115C154.632 195.457 154.404 195.746 154.121 195.983C153.839 196.22 153.533 196.414 153.205 196.564L156.145 200.919H153.793L151.407 197.084H150.279V200.919H148.16V190.925H151.072ZM150.922 192.661H150.279V195.361H150.963C151.665 195.361 152.166 195.245 152.467 195.013C152.772 194.776 152.925 194.429 152.925 193.974C152.925 193.5 152.761 193.162 152.433 192.962C152.109 192.761 151.605 192.661 150.922 192.661ZM160.369 193.119C161.395 193.119 162.181 193.342 162.728 193.789C163.274 194.236 163.548 194.915 163.548 195.826V200.919H162.092L161.688 199.88H161.634C161.415 200.153 161.192 200.377 160.964 200.55C160.736 200.723 160.474 200.851 160.178 200.933C159.882 201.015 159.521 201.056 159.098 201.056C158.646 201.056 158.241 200.969 157.881 200.796C157.525 200.623 157.245 200.358 157.04 200.003C156.835 199.643 156.732 199.187 156.732 198.636C156.732 197.825 157.017 197.228 157.587 196.845C158.157 196.457 159.011 196.243 160.15 196.202L161.477 196.161V195.826C161.477 195.425 161.372 195.131 161.162 194.944C160.952 194.757 160.661 194.664 160.287 194.664C159.918 194.664 159.556 194.716 159.2 194.821C158.845 194.926 158.489 195.058 158.134 195.218L157.443 193.81C157.849 193.595 158.302 193.427 158.804 193.304C159.31 193.181 159.831 193.119 160.369 193.119ZM161.477 197.378L160.67 197.405C159.995 197.424 159.526 197.544 159.262 197.768C159.002 197.991 158.872 198.285 158.872 198.649C158.872 198.968 158.965 199.196 159.152 199.333C159.339 199.465 159.583 199.531 159.884 199.531C160.33 199.531 160.706 199.399 161.012 199.135C161.322 198.87 161.477 198.494 161.477 198.007V197.378ZM167.786 190.282V192.757C167.786 193.044 167.777 193.329 167.759 193.611C167.745 193.894 167.727 194.113 167.704 194.268H167.786C167.987 193.953 168.26 193.687 168.606 193.468C168.953 193.244 169.402 193.133 169.953 193.133C170.81 193.133 171.505 193.468 172.038 194.138C172.571 194.808 172.838 195.79 172.838 197.084C172.838 197.954 172.715 198.686 172.469 199.278C172.223 199.866 171.879 200.311 171.437 200.611C170.994 200.908 170.482 201.056 169.898 201.056C169.338 201.056 168.896 200.955 168.572 200.755C168.249 200.554 167.987 200.329 167.786 200.078H167.643L167.294 200.919H165.701V190.282H167.786ZM169.283 194.801C168.919 194.801 168.629 194.876 168.415 195.026C168.201 195.177 168.044 195.402 167.943 195.703C167.848 196.004 167.795 196.384 167.786 196.845V197.07C167.786 197.813 167.896 198.383 168.114 198.779C168.333 199.171 168.732 199.367 169.311 199.367C169.739 199.367 170.078 199.169 170.329 198.772C170.584 198.376 170.712 197.804 170.712 197.057C170.712 196.309 170.584 195.746 170.329 195.368C170.074 194.99 169.725 194.801 169.283 194.801ZM177.691 193.119C178.717 193.119 179.503 193.342 180.05 193.789C180.597 194.236 180.87 194.915 180.87 195.826V200.919H179.414L179.011 199.88H178.956C178.737 200.153 178.514 200.377 178.286 200.55C178.058 200.723 177.796 200.851 177.5 200.933C177.204 201.015 176.844 201.056 176.42 201.056C175.969 201.056 175.563 200.969 175.203 200.796C174.848 200.623 174.567 200.358 174.362 200.003C174.157 199.643 174.055 199.187 174.055 198.636C174.055 197.825 174.34 197.228 174.909 196.845C175.479 196.457 176.333 196.243 177.473 196.202L178.799 196.161V195.826C178.799 195.425 178.694 195.131 178.484 194.944C178.275 194.757 177.983 194.664 177.609 194.664C177.24 194.664 176.878 194.716 176.522 194.821C176.167 194.926 175.812 195.058 175.456 195.218L174.766 193.81C175.171 193.595 175.625 193.427 176.126 193.304C176.632 193.181 177.154 193.119 177.691 193.119ZM178.799 197.378L177.992 197.405C177.318 197.424 176.848 197.544 176.584 197.768C176.324 197.991 176.194 198.285 176.194 198.649C176.194 198.968 176.288 199.196 176.475 199.333C176.661 199.465 176.905 199.531 177.206 199.531C177.653 199.531 178.029 199.399 178.334 199.135C178.644 198.87 178.799 198.494 178.799 198.007V197.378ZM186.243 199.395C186.471 199.395 186.692 199.372 186.906 199.326C187.125 199.281 187.341 199.224 187.556 199.155V200.707C187.332 200.807 187.054 200.889 186.722 200.953C186.394 201.021 186.034 201.056 185.642 201.056C185.186 201.056 184.776 200.983 184.411 200.837C184.051 200.687 183.766 200.429 183.557 200.064C183.352 199.695 183.249 199.183 183.249 198.526V194.842H182.251V193.96L183.399 193.263L184.001 191.649H185.334V193.276H187.474V194.842H185.334V198.526C185.334 198.818 185.416 199.037 185.58 199.183C185.749 199.324 185.97 199.395 186.243 199.395ZM192.327 199.395C192.555 199.395 192.776 199.372 192.99 199.326C193.209 199.281 193.425 199.224 193.64 199.155V200.707C193.416 200.807 193.138 200.889 192.806 200.953C192.478 201.021 192.118 201.056 191.726 201.056C191.27 201.056 190.86 200.983 190.495 200.837C190.135 200.687 189.85 200.429 189.641 200.064C189.436 199.695 189.333 199.183 189.333 198.526V194.842H188.335V193.96L189.483 193.263L190.085 191.649H191.418V193.276H193.558V194.842H191.418V198.526C191.418 198.818 191.5 199.037 191.664 199.183C191.833 199.324 192.054 199.395 192.327 199.395Z" fill="white"/>
<path fill-rule="evenodd" clip-rule="evenodd" d="M242.413 119.227C242.755 119.077 243.126 119 243.5 119C243.874 119 244.245 119.077 244.587 119.227L258.329 125.241C258.784 125.441 259.175 125.762 259.46 126.165C259.465 126.173 259.471 126.181 259.476 126.189C259.49 126.209 259.504 126.23 259.518 126.251C259.806 126.695 259.96 127.213 259.959 127.741C259.959 127.742 259.959 127.741 259.959 127.741V143.151C259.959 143.673 259.81 144.184 259.529 144.624C259.247 145.064 258.845 145.415 258.369 145.632L245.266 151.63C245.266 151.63 245.266 151.63 245.266 151.63C245.072 151.719 244.868 151.784 244.66 151.826C244.503 151.886 244.332 151.919 244.154 151.919C243.991 151.919 243.833 151.891 243.687 151.84C243.481 151.805 243.279 151.747 243.085 151.666C243.085 151.666 243.085 151.666 243.085 151.666L228.711 145.637C228.214 145.429 227.791 145.078 227.495 144.63C227.198 144.182 227.041 143.657 227.041 143.121C227.041 143.121 227.041 143.121 227.041 143.121V127.741C227.04 127.213 227.194 126.695 227.482 126.251C227.771 125.807 228.183 125.456 228.669 125.242L242.413 119.227ZM229.862 128.999V143.061L242.743 148.463V134.401L229.862 128.999ZM245.565 134.369V148.39L257.138 143.093V129.074L252.421 131.232C252.352 131.271 252.281 131.303 252.207 131.33L245.565 134.369ZM251.736 128.443L255.095 126.906L243.5 121.831L240.585 123.107L251.736 128.443ZM237.171 124.601L248.394 129.971L244.13 131.923L232.033 126.85L237.171 124.601Z" fill="white"/>
<path d="M235.447 176.919H233.335V171.136C233.335 170.976 233.337 170.78 233.342 170.548C233.346 170.311 233.353 170.069 233.362 169.823C233.371 169.573 233.381 169.347 233.39 169.146C233.34 169.206 233.237 169.308 233.082 169.454C232.932 169.595 232.79 169.723 232.658 169.837L231.51 170.76L230.491 169.488L233.711 166.925H235.447V176.919ZM245.168 171.922C245.168 172.729 245.104 173.449 244.977 174.082C244.854 174.715 244.653 175.253 244.375 175.695C244.102 176.137 243.742 176.475 243.295 176.707C242.848 176.939 242.306 177.056 241.668 177.056C240.866 177.056 240.207 176.853 239.692 176.447C239.177 176.037 238.797 175.449 238.551 174.684C238.305 173.913 238.182 172.993 238.182 171.922C238.182 170.842 238.293 169.919 238.517 169.153C238.744 168.383 239.114 167.793 239.624 167.383C240.134 166.973 240.816 166.768 241.668 166.768C242.465 166.768 243.122 166.973 243.637 167.383C244.156 167.788 244.541 168.376 244.792 169.146C245.043 169.912 245.168 170.837 245.168 171.922ZM240.28 171.922C240.28 172.683 240.321 173.319 240.403 173.829C240.49 174.335 240.633 174.715 240.834 174.971C241.035 175.226 241.312 175.354 241.668 175.354C242.019 175.354 242.295 175.228 242.495 174.978C242.7 174.722 242.846 174.342 242.933 173.836C243.019 173.326 243.062 172.688 243.062 171.922C243.062 171.161 243.019 170.525 242.933 170.015C242.846 169.504 242.7 169.121 242.495 168.866C242.295 168.606 242.019 168.477 241.668 168.477C241.312 168.477 241.035 168.606 240.834 168.866C240.633 169.121 240.49 169.504 240.403 170.015C240.321 170.525 240.28 171.161 240.28 171.922ZM251.177 166.85C251.637 166.85 252.063 166.897 252.455 166.993C252.847 167.089 253.223 167.228 253.583 167.41L252.913 168.996C252.599 168.855 252.305 168.745 252.031 168.668C251.758 168.586 251.473 168.545 251.177 168.545C250.899 168.545 250.644 168.586 250.411 168.668C250.183 168.75 249.98 168.871 249.803 169.03C249.625 169.19 249.477 169.386 249.358 169.618C249.24 169.851 249.156 170.119 249.105 170.425H251.86V171.628H249.003C249.003 171.66 249.001 171.708 248.996 171.771C248.992 171.835 248.989 171.908 248.989 171.99C248.989 172.063 248.989 172.134 248.989 172.202C248.994 172.266 248.998 172.337 249.003 172.414H251.43V173.631H249.119C249.197 173.991 249.329 174.296 249.516 174.547C249.707 174.793 249.953 174.98 250.254 175.107C250.555 175.23 250.908 175.292 251.313 175.292C251.674 175.292 252.008 175.258 252.318 175.189C252.628 175.117 252.92 175.021 253.193 174.902V176.652C252.934 176.785 252.642 176.885 252.318 176.953C251.995 177.021 251.619 177.056 251.19 177.056C250.461 177.056 249.81 176.924 249.235 176.659C248.666 176.39 248.196 176.001 247.827 175.49C247.458 174.98 247.207 174.36 247.075 173.631H246.139V172.414H246.945C246.941 172.364 246.934 172.3 246.925 172.223C246.92 172.141 246.918 172.063 246.918 171.99C246.918 171.922 246.918 171.856 246.918 171.792C246.923 171.724 246.927 171.669 246.932 171.628H246.139V170.425H247.048C247.166 169.677 247.412 169.037 247.786 168.504C248.16 167.971 248.636 167.563 249.215 167.28C249.794 166.993 250.448 166.85 251.177 166.85ZM224.072 190.925C224.979 190.925 225.727 191.034 226.314 191.253C226.907 191.472 227.347 191.802 227.634 192.244C227.921 192.686 228.064 193.244 228.064 193.919C228.064 194.375 227.978 194.773 227.805 195.115C227.632 195.457 227.404 195.746 227.121 195.983C226.839 196.22 226.533 196.414 226.205 196.564L229.145 200.919H226.793L224.407 197.084H223.279V200.919H221.16V190.925H224.072ZM223.922 192.661H223.279V195.361H223.963C224.665 195.361 225.166 195.245 225.467 195.013C225.772 194.776 225.925 194.429 225.925 193.974C225.925 193.5 225.761 193.162 225.433 192.962C225.109 192.761 224.605 192.661 223.922 192.661ZM233.369 193.119C234.395 193.119 235.181 193.342 235.728 193.789C236.274 194.236 236.548 194.915 236.548 195.826V200.919H235.092L234.688 199.88H234.634C234.415 200.153 234.192 200.377 233.964 200.55C233.736 200.723 233.474 200.851 233.178 200.933C232.882 201.015 232.521 201.056 232.098 201.056C231.646 201.056 231.241 200.969 230.881 200.796C230.525 200.623 230.245 200.358 230.04 200.003C229.835 199.643 229.732 199.187 229.732 198.636C229.732 197.825 230.017 197.228 230.587 196.845C231.157 196.457 232.011 196.243 233.15 196.202L234.477 196.161V195.826C234.477 195.425 234.372 195.131 234.162 194.944C233.952 194.757 233.661 194.664 233.287 194.664C232.918 194.664 232.556 194.716 232.2 194.821C231.845 194.926 231.489 195.058 231.134 195.218L230.443 193.81C230.849 193.595 231.302 193.427 231.804 193.304C232.31 193.181 232.831 193.119 233.369 193.119ZM234.477 197.378L233.67 197.405C232.995 197.424 232.526 197.544 232.262 197.768C232.002 197.991 231.872 198.285 231.872 198.649C231.872 198.968 231.965 199.196 232.152 199.333C232.339 199.465 232.583 199.531 232.884 199.531C233.33 199.531 233.706 199.399 234.012 199.135C234.322 198.87 234.477 198.494 234.477 198.007V197.378ZM240.786 190.282V192.757C240.786 193.044 240.777 193.329 240.759 193.611C240.745 193.894 240.727 194.113 240.704 194.268H240.786C240.987 193.953 241.26 193.687 241.606 193.468C241.953 193.244 242.402 193.133 242.953 193.133C243.81 193.133 244.505 193.468 245.038 194.138C245.571 194.808 245.838 195.79 245.838 197.084C245.838 197.954 245.715 198.686 245.469 199.278C245.223 199.866 244.879 200.311 244.437 200.611C243.994 200.908 243.482 201.056 242.898 201.056C242.338 201.056 241.896 200.955 241.572 200.755C241.249 200.554 240.987 200.329 240.786 200.078H240.643L240.294 200.919H238.701V190.282H240.786ZM242.283 194.801C241.919 194.801 241.629 194.876 241.415 195.026C241.201 195.177 241.044 195.402 240.943 195.703C240.848 196.004 240.795 196.384 240.786 196.845V197.07C240.786 197.813 240.896 198.383 241.114 198.779C241.333 199.171 241.732 199.367 242.311 199.367C242.739 199.367 243.078 199.169 243.329 198.772C243.584 198.376 243.712 197.804 243.712 197.057C243.712 196.309 243.584 195.746 243.329 195.368C243.074 194.99 242.725 194.801 242.283 194.801ZM250.691 193.119C251.717 193.119 252.503 193.342 253.05 193.789C253.597 194.236 253.87 194.915 253.87 195.826V200.919H252.414L252.011 199.88H251.956C251.737 200.153 251.514 200.377 251.286 200.55C251.058 200.723 250.796 200.851 250.5 200.933C250.204 201.015 249.844 201.056 249.42 201.056C248.969 201.056 248.563 200.969 248.203 200.796C247.848 200.623 247.567 200.358 247.362 200.003C247.157 199.643 247.055 199.187 247.055 198.636C247.055 197.825 247.34 197.228 247.909 196.845C248.479 196.457 249.333 196.243 250.473 196.202L251.799 196.161V195.826C251.799 195.425 251.694 195.131 251.484 194.944C251.275 194.757 250.983 194.664 250.609 194.664C250.24 194.664 249.878 194.716 249.522 194.821C249.167 194.926 248.812 195.058 248.456 195.218L247.766 193.81C248.171 193.595 248.625 193.427 249.126 193.304C249.632 193.181 250.154 193.119 250.691 193.119ZM251.799 197.378L250.992 197.405C250.318 197.424 249.848 197.544 249.584 197.768C249.324 197.991 249.194 198.285 249.194 198.649C249.194 198.968 249.288 199.196 249.475 199.333C249.661 199.465 249.905 199.531 250.206 199.531C250.653 199.531 251.029 199.399 251.334 199.135C251.644 198.87 251.799 198.494 251.799 198.007V197.378ZM259.243 199.395C259.471 199.395 259.692 199.372 259.906 199.326C260.125 199.281 260.341 199.224 260.556 199.155V200.707C260.332 200.807 260.054 200.889 259.722 200.953C259.394 201.021 259.034 201.056 258.642 201.056C258.186 201.056 257.776 200.983 257.411 200.837C257.051 200.687 256.766 200.429 256.557 200.064C256.352 199.695 256.249 199.183 256.249 198.526V194.842H255.251V193.96L256.399 193.263L257.001 191.649H258.334V193.276H260.474V194.842H258.334V198.526C258.334 198.818 258.416 199.037 258.58 199.183C258.749 199.324 258.97 199.395 259.243 199.395ZM265.327 199.395C265.555 199.395 265.776 199.372 265.99 199.326C266.209 199.281 266.425 199.224 266.64 199.155V200.707C266.416 200.807 266.138 200.889 265.806 200.953C265.478 201.021 265.118 201.056 264.726 201.056C264.27 201.056 263.86 200.983 263.495 200.837C263.135 200.687 262.85 200.429 262.641 200.064C262.436 199.695 262.333 199.183 262.333 198.526V194.842H261.335V193.96L262.483 193.263L263.085 191.649H264.418V193.276H266.558V194.842H264.418V198.526C264.418 198.818 264.5 199.037 264.664 199.183C264.833 199.324 265.054 199.395 265.327 199.395Z" fill="white"/>
<path fill-rule="evenodd" clip-rule="evenodd" d="M315.413 119.227C315.755 119.077 316.126 119 316.5 119C316.874 119 317.245 119.077 317.587 119.227L331.329 125.241C331.784 125.441 332.175 125.762 332.46 126.165C332.465 126.173 332.471 126.181 332.476 126.189C332.49 126.209 332.504 126.23 332.518 126.251C332.806 126.695 332.96 127.213 332.959 127.741C332.959 127.742 332.959 127.741 332.959 127.741V143.151C332.959 143.673 332.81 144.184 332.529 144.624C332.247 145.064 331.845 145.415 331.369 145.632L318.266 151.63C318.266 151.63 318.266 151.63 318.266 151.63C318.072 151.719 317.868 151.784 317.66 151.826C317.503 151.886 317.332 151.919 317.154 151.919C316.991 151.919 316.833 151.891 316.687 151.84C316.481 151.805 316.279 151.747 316.085 151.666C316.085 151.666 316.085 151.666 316.085 151.666L301.711 145.637C301.214 145.429 300.791 145.078 300.495 144.63C300.198 144.182 300.041 143.657 300.041 143.121C300.041 143.121 300.041 143.121 300.041 143.121V127.741C300.04 127.213 300.194 126.695 300.482 126.251C300.771 125.807 301.183 125.456 301.669 125.242L315.413 119.227ZM302.862 128.999V143.061L315.743 148.463V134.401L302.862 128.999ZM318.565 134.369V148.39L330.138 143.093V129.074L325.421 131.232C325.352 131.271 325.281 131.303 325.207 131.33L318.565 134.369ZM324.736 128.443L328.095 126.906L316.5 121.831L313.585 123.107L324.736 128.443ZM310.171 124.601L321.394 129.971L317.13 131.923L305.033 126.85L310.171 124.601Z" fill="white"/>
<path d="M308.447 176.919H306.335V171.136C306.335 170.976 306.337 170.78 306.342 170.548C306.346 170.311 306.353 170.069 306.362 169.823C306.371 169.573 306.381 169.347 306.39 169.146C306.34 169.206 306.237 169.308 306.082 169.454C305.932 169.595 305.79 169.723 305.658 169.837L304.51 170.76L303.491 169.488L306.711 166.925H308.447V176.919ZM318.168 171.922C318.168 172.729 318.104 173.449 317.977 174.082C317.854 174.715 317.653 175.253 317.375 175.695C317.102 176.137 316.742 176.475 316.295 176.707C315.848 176.939 315.306 177.056 314.668 177.056C313.866 177.056 313.207 176.853 312.692 176.447C312.177 176.037 311.797 175.449 311.551 174.684C311.305 173.913 311.182 172.993 311.182 171.922C311.182 170.842 311.293 169.919 311.517 169.153C311.744 168.383 312.114 167.793 312.624 167.383C313.134 166.973 313.816 166.768 314.668 166.768C315.465 166.768 316.122 166.973 316.637 167.383C317.156 167.788 317.541 168.376 317.792 169.146C318.043 169.912 318.168 170.837 318.168 171.922ZM313.28 171.922C313.28 172.683 313.321 173.319 313.403 173.829C313.49 174.335 313.633 174.715 313.834 174.971C314.035 175.226 314.312 175.354 314.668 175.354C315.019 175.354 315.295 175.228 315.495 174.978C315.7 174.722 315.846 174.342 315.933 173.836C316.019 173.326 316.062 172.688 316.062 171.922C316.062 171.161 316.019 170.525 315.933 170.015C315.846 169.504 315.7 169.121 315.495 168.866C315.295 168.606 315.019 168.477 314.668 168.477C314.312 168.477 314.035 168.606 313.834 168.866C313.633 169.121 313.49 169.504 313.403 170.015C313.321 170.525 313.28 171.161 313.28 171.922ZM324.177 166.85C324.637 166.85 325.063 166.897 325.455 166.993C325.847 167.089 326.223 167.228 326.583 167.41L325.913 168.996C325.599 168.855 325.305 168.745 325.031 168.668C324.758 168.586 324.473 168.545 324.177 168.545C323.899 168.545 323.644 168.586 323.411 168.668C323.183 168.75 322.98 168.871 322.803 169.03C322.625 169.19 322.477 169.386 322.358 169.618C322.24 169.851 322.156 170.119 322.105 170.425H324.86V171.628H322.003C322.003 171.66 322.001 171.708 321.996 171.771C321.992 171.835 321.989 171.908 321.989 171.99C321.989 172.063 321.989 172.134 321.989 172.202C321.994 172.266 321.998 172.337 322.003 172.414H324.43V173.631H322.119C322.197 173.991 322.329 174.296 322.516 174.547C322.707 174.793 322.953 174.98 323.254 175.107C323.555 175.23 323.908 175.292 324.313 175.292C324.674 175.292 325.008 175.258 325.318 175.189C325.628 175.117 325.92 175.021 326.193 174.902V176.652C325.934 176.785 325.642 176.885 325.318 176.953C324.995 177.021 324.619 177.056 324.19 177.056C323.461 177.056 322.81 176.924 322.235 176.659C321.666 176.39 321.196 176.001 320.827 175.49C320.458 174.98 320.207 174.36 320.075 173.631H319.139V172.414H319.945C319.941 172.364 319.934 172.3 319.925 172.223C319.92 172.141 319.918 172.063 319.918 171.99C319.918 171.922 319.918 171.856 319.918 171.792C319.923 171.724 319.927 171.669 319.932 171.628H319.139V170.425H320.048C320.166 169.677 320.412 169.037 320.786 168.504C321.16 167.971 321.636 167.563 322.215 167.28C322.794 166.993 323.448 166.85 324.177 166.85ZM297.072 190.925C297.979 190.925 298.727 191.034 299.314 191.253C299.907 191.472 300.347 191.802 300.634 192.244C300.921 192.686 301.064 193.244 301.064 193.919C301.064 194.375 300.978 194.773 300.805 195.115C300.632 195.457 300.404 195.746 300.121 195.983C299.839 196.22 299.533 196.414 299.205 196.564L302.145 200.919H299.793L297.407 197.084H296.279V200.919H294.16V190.925H297.072ZM296.922 192.661H296.279V195.361H296.963C297.665 195.361 298.166 195.245 298.467 195.013C298.772 194.776 298.925 194.429 298.925 193.974C298.925 193.5 298.761 193.162 298.433 192.962C298.109 192.761 297.605 192.661 296.922 192.661ZM306.369 193.119C307.395 193.119 308.181 193.342 308.728 193.789C309.274 194.236 309.548 194.915 309.548 195.826V200.919H308.092L307.688 199.88H307.634C307.415 200.153 307.192 200.377 306.964 200.55C306.736 200.723 306.474 200.851 306.178 200.933C305.882 201.015 305.521 201.056 305.098 201.056C304.646 201.056 304.241 200.969 303.881 200.796C303.525 200.623 303.245 200.358 303.04 200.003C302.835 199.643 302.732 199.187 302.732 198.636C302.732 197.825 303.017 197.228 303.587 196.845C304.157 196.457 305.011 196.243 306.15 196.202L307.477 196.161V195.826C307.477 195.425 307.372 195.131 307.162 194.944C306.952 194.757 306.661 194.664 306.287 194.664C305.918 194.664 305.556 194.716 305.2 194.821C304.845 194.926 304.489 195.058 304.134 195.218L303.443 193.81C303.849 193.595 304.302 193.427 304.804 193.304C305.31 193.181 305.831 193.119 306.369 193.119ZM307.477 197.378L306.67 197.405C305.995 197.424 305.526 197.544 305.262 197.768C305.002 197.991 304.872 198.285 304.872 198.649C304.872 198.968 304.965 199.196 305.152 199.333C305.339 199.465 305.583 199.531 305.884 199.531C306.33 199.531 306.706 199.399 307.012 199.135C307.322 198.87 307.477 198.494 307.477 198.007V197.378ZM313.786 190.282V192.757C313.786 193.044 313.777 193.329 313.759 193.611C313.745 193.894 313.727 194.113 313.704 194.268H313.786C313.987 193.953 314.26 193.687 314.606 193.468C314.953 193.244 315.402 193.133 315.953 193.133C316.81 193.133 317.505 193.468 318.038 194.138C318.571 194.808 318.838 195.79 318.838 197.084C318.838 197.954 318.715 198.686 318.469 199.278C318.223 199.866 317.879 200.311 317.437 200.611C316.994 200.908 316.482 201.056 315.898 201.056C315.338 201.056 314.896 200.955 314.572 200.755C314.249 200.554 313.987 200.329 313.786 200.078H313.643L313.294 200.919H311.701V190.282H313.786ZM315.283 194.801C314.919 194.801 314.629 194.876 314.415 195.026C314.201 195.177 314.044 195.402 313.943 195.703C313.848 196.004 313.795 196.384 313.786 196.845V197.07C313.786 197.813 313.896 198.383 314.114 198.779C314.333 199.171 314.732 199.367 315.311 199.367C315.739 199.367 316.078 199.169 316.329 198.772C316.584 198.376 316.712 197.804 316.712 197.057C316.712 196.309 316.584 195.746 316.329 195.368C316.074 194.99 315.725 194.801 315.283 194.801ZM323.691 193.119C324.717 193.119 325.503 193.342 326.05 193.789C326.597 194.236 326.87 194.915 326.87 195.826V200.919H325.414L325.011 199.88H324.956C324.737 200.153 324.514 200.377 324.286 200.55C324.058 200.723 323.796 200.851 323.5 200.933C323.204 201.015 322.844 201.056 322.42 201.056C321.969 201.056 321.563 200.969 321.203 200.796C320.848 200.623 320.567 200.358 320.362 200.003C320.157 199.643 320.055 199.187 320.055 198.636C320.055 197.825 320.34 197.228 320.909 196.845C321.479 196.457 322.333 196.243 323.473 196.202L324.799 196.161V195.826C324.799 195.425 324.694 195.131 324.484 194.944C324.275 194.757 323.983 194.664 323.609 194.664C323.24 194.664 322.878 194.716 322.522 194.821C322.167 194.926 321.812 195.058 321.456 195.218L320.766 193.81C321.171 193.595 321.625 193.427 322.126 193.304C322.632 193.181 323.154 193.119 323.691 193.119ZM324.799 197.378L323.992 197.405C323.318 197.424 322.848 197.544 322.584 197.768C322.324 197.991 322.194 198.285 322.194 198.649C322.194 198.968 322.288 199.196 322.475 199.333C322.661 199.465 322.905 199.531 323.206 199.531C323.653 199.531 324.029 199.399 324.334 199.135C324.644 198.87 324.799 198.494 324.799 198.007V197.378ZM332.243 199.395C332.471 199.395 332.692 199.372 332.906 199.326C333.125 199.281 333.341 199.224 333.556 199.155V200.707C333.332 200.807 333.054 200.889 332.722 200.953C332.394 201.021 332.034 201.056 331.642 201.056C331.186 201.056 330.776 200.983 330.411 200.837C330.051 200.687 329.766 200.429 329.557 200.064C329.352 199.695 329.249 199.183 329.249 198.526V194.842H328.251V193.96L329.399 193.263L330.001 191.649H331.334V193.276H333.474V194.842H331.334V198.526C331.334 198.818 331.416 199.037 331.58 199.183C331.749 199.324 331.97 199.395 332.243 199.395ZM338.327 199.395C338.555 199.395 338.776 199.372 338.99 199.326C339.209 199.281 339.425 199.224 339.64 199.155V200.707C339.416 200.807 339.138 200.889 338.806 200.953C338.478 201.021 338.118 201.056 337.726 201.056C337.27 201.056 336.86 200.983 336.495 200.837C336.135 200.687 335.85 200.429 335.641 200.064C335.436 199.695 335.333 199.183 335.333 198.526V194.842H334.335V193.96L335.483 193.263L336.085 191.649H337.418V193.276H339.558V194.842H337.418V198.526C337.418 198.818 337.5 199.037 337.664 199.183C337.833 199.324 338.054 199.395 338.327 199.395Z" fill="white"/>
<path fill-rule="evenodd" clip-rule="evenodd" d="M388.413 119.227C388.755 119.077 389.126 119 389.5 119C389.874 119 390.245 119.077 390.587 119.227L404.329 125.241C404.784 125.441 405.175 125.762 405.46 126.165C405.465 126.173 405.471 126.181 405.476 126.189C405.49 126.209 405.504 126.23 405.518 126.251C405.806 126.695 405.96 127.213 405.959 127.741C405.959 127.742 405.959 127.741 405.959 127.741V143.151C405.959 143.673 405.81 144.184 405.529 144.624C405.247 145.064 404.845 145.415 404.369 145.632L391.266 151.63C391.266 151.63 391.266 151.63 391.266 151.63C391.072 151.719 390.868 151.784 390.66 151.826C390.503 151.886 390.332 151.919 390.154 151.919C389.991 151.919 389.833 151.891 389.687 151.84C389.481 151.805 389.279 151.747 389.085 151.666C389.085 151.666 389.085 151.666 389.085 151.666L374.711 145.637C374.214 145.429 373.791 145.078 373.495 144.63C373.198 144.182 373.041 143.657 373.041 143.121C373.041 143.121 373.041 143.121 373.041 143.121V127.741C373.04 127.213 373.194 126.695 373.482 126.251C373.771 125.807 374.183 125.456 374.669 125.242L388.413 119.227ZM375.862 128.999V143.061L388.743 148.463V134.401L375.862 128.999ZM391.565 134.369V148.39L403.138 143.093V129.074L398.421 131.232C398.352 131.271 398.281 131.303 398.207 131.33L391.565 134.369ZM397.736 128.443L401.095 126.906L389.5 121.831L386.585 123.107L397.736 128.443ZM383.171 124.601L394.394 129.971L390.13 131.923L378.033 126.85L383.171 124.601Z" fill="white"/>
<path d="M381.447 176.919H379.335V171.136C379.335 170.976 379.337 170.78 379.342 170.548C379.346 170.311 379.353 170.069 379.362 169.823C379.371 169.573 379.381 169.347 379.39 169.146C379.34 169.206 379.237 169.308 379.082 169.454C378.932 169.595 378.79 169.723 378.658 169.837L377.51 170.76L376.491 169.488L379.711 166.925H381.447V176.919ZM391.168 171.922C391.168 172.729 391.104 173.449 390.977 174.082C390.854 174.715 390.653 175.253 390.375 175.695C390.102 176.137 389.742 176.475 389.295 176.707C388.848 176.939 388.306 177.056 387.668 177.056C386.866 177.056 386.207 176.853 385.692 176.447C385.177 176.037 384.797 175.449 384.551 174.684C384.305 173.913 384.182 172.993 384.182 171.922C384.182 170.842 384.293 169.919 384.517 169.153C384.744 168.383 385.114 167.793 385.624 167.383C386.134 166.973 386.816 166.768 387.668 166.768C388.465 166.768 389.122 166.973 389.637 167.383C390.156 167.788 390.541 168.376 390.792 169.146C391.043 169.912 391.168 170.837 391.168 171.922ZM386.28 171.922C386.28 172.683 386.321 173.319 386.403 173.829C386.49 174.335 386.633 174.715 386.834 174.971C387.035 175.226 387.312 175.354 387.668 175.354C388.019 175.354 388.295 175.228 388.495 174.978C388.7 174.722 388.846 174.342 388.933 173.836C389.019 173.326 389.062 172.688 389.062 171.922C389.062 171.161 389.019 170.525 388.933 170.015C388.846 169.504 388.7 169.121 388.495 168.866C388.295 168.606 388.019 168.477 387.668 168.477C387.312 168.477 387.035 168.606 386.834 168.866C386.633 169.121 386.49 169.504 386.403 170.015C386.321 170.525 386.28 171.161 386.28 171.922ZM397.177 166.85C397.637 166.85 398.063 166.897 398.455 166.993C398.847 167.089 399.223 167.228 399.583 167.41L398.913 168.996C398.599 168.855 398.305 168.745 398.031 168.668C397.758 168.586 397.473 168.545 397.177 168.545C396.899 168.545 396.644 168.586 396.411 168.668C396.183 168.75 395.98 168.871 395.803 169.03C395.625 169.19 395.477 169.386 395.358 169.618C395.24 169.851 395.156 170.119 395.105 170.425H397.86V171.628H395.003C395.003 171.66 395.001 171.708 394.996 171.771C394.992 171.835 394.989 171.908 394.989 171.99C394.989 172.063 394.989 172.134 394.989 172.202C394.994 172.266 394.998 172.337 395.003 172.414H397.43V173.631H395.119C395.197 173.991 395.329 174.296 395.516 174.547C395.707 174.793 395.953 174.98 396.254 175.107C396.555 175.23 396.908 175.292 397.313 175.292C397.674 175.292 398.008 175.258 398.318 175.189C398.628 175.117 398.92 175.021 399.193 174.902V176.652C398.934 176.785 398.642 176.885 398.318 176.953C397.995 177.021 397.619 177.056 397.19 177.056C396.461 177.056 395.81 176.924 395.235 176.659C394.666 176.39 394.196 176.001 393.827 175.49C393.458 174.98 393.207 174.36 393.075 173.631H392.139V172.414H392.945C392.941 172.364 392.934 172.3 392.925 172.223C392.92 172.141 392.918 172.063 392.918 171.99C392.918 171.922 392.918 171.856 392.918 171.792C392.923 171.724 392.927 171.669 392.932 171.628H392.139V170.425H393.048C393.166 169.677 393.412 169.037 393.786 168.504C394.16 167.971 394.636 167.563 395.215 167.28C395.794 166.993 396.448 166.85 397.177 166.85ZM370.072 190.925C370.979 190.925 371.727 191.034 372.314 191.253C372.907 191.472 373.347 191.802 373.634 192.244C373.921 192.686 374.064 193.244 374.064 193.919C374.064 194.375 373.978 194.773 373.805 195.115C373.632 195.457 373.404 195.746 373.121 195.983C372.839 196.22 372.533 196.414 372.205 196.564L375.145 200.919H372.793L370.407 197.084H369.279V200.919H367.16V190.925H370.072ZM369.922 192.661H369.279V195.361H369.963C370.665 195.361 371.166 195.245 371.467 195.013C371.772 194.776 371.925 194.429 371.925 193.974C371.925 193.5 371.761 193.162 371.433 192.962C371.109 192.761 370.605 192.661 369.922 192.661ZM379.369 193.119C380.395 193.119 381.181 193.342 381.728 193.789C382.274 194.236 382.548 194.915 382.548 195.826V200.919H381.092L380.688 199.88H380.634C380.415 200.153 380.192 200.377 379.964 200.55C379.736 200.723 379.474 200.851 379.178 200.933C378.882 201.015 378.521 201.056 378.098 201.056C377.646 201.056 377.241 200.969 376.881 200.796C376.525 200.623 376.245 200.358 376.04 200.003C375.835 199.643 375.732 199.187 375.732 198.636C375.732 197.825 376.017 197.228 376.587 196.845C377.157 196.457 378.011 196.243 379.15 196.202L380.477 196.161V195.826C380.477 195.425 380.372 195.131 380.162 194.944C379.952 194.757 379.661 194.664 379.287 194.664C378.918 194.664 378.556 194.716 378.2 194.821C377.845 194.926 377.489 195.058 377.134 195.218L376.443 193.81C376.849 193.595 377.302 193.427 377.804 193.304C378.31 193.181 378.831 193.119 379.369 193.119ZM380.477 197.378L379.67 197.405C378.995 197.424 378.526 197.544 378.262 197.768C378.002 197.991 377.872 198.285 377.872 198.649C377.872 198.968 377.965 199.196 378.152 199.333C378.339 199.465 378.583 199.531 378.884 199.531C379.33 199.531 379.706 199.399 380.012 199.135C380.322 198.87 380.477 198.494 380.477 198.007V197.378ZM386.786 190.282V192.757C386.786 193.044 386.777 193.329 386.759 193.611C386.745 193.894 386.727 194.113 386.704 194.268H386.786C386.987 193.953 387.26 193.687 387.606 193.468C387.953 193.244 388.402 193.133 388.953 193.133C389.81 193.133 390.505 193.468 391.038 194.138C391.571 194.808 391.838 195.79 391.838 197.084C391.838 197.954 391.715 198.686 391.469 199.278C391.223 199.866 390.879 200.311 390.437 200.611C389.994 200.908 389.482 201.056 388.898 201.056C388.338 201.056 387.896 200.955 387.572 200.755C387.249 200.554 386.987 200.329 386.786 200.078H386.643L386.294 200.919H384.701V190.282H386.786ZM388.283 194.801C387.919 194.801 387.629 194.876 387.415 195.026C387.201 195.177 387.044 195.402 386.943 195.703C386.848 196.004 386.795 196.384 386.786 196.845V197.07C386.786 197.813 386.896 198.383 387.114 198.779C387.333 199.171 387.732 199.367 388.311 199.367C388.739 199.367 389.078 199.169 389.329 198.772C389.584 198.376 389.712 197.804 389.712 197.057C389.712 196.309 389.584 195.746 389.329 195.368C389.074 194.99 388.725 194.801 388.283 194.801ZM396.691 193.119C397.717 193.119 398.503 193.342 399.05 193.789C399.597 194.236 399.87 194.915 399.87 195.826V200.919H398.414L398.011 199.88H397.956C397.737 200.153 397.514 200.377 397.286 200.55C397.058 200.723 396.796 200.851 396.5 200.933C396.204 201.015 395.844 201.056 395.42 201.056C394.969 201.056 394.563 200.969 394.203 200.796C393.848 200.623 393.567 200.358 393.362 200.003C393.157 199.643 393.055 199.187 393.055 198.636C393.055 197.825 393.34 197.228 393.909 196.845C394.479 196.457 395.333 196.243 396.473 196.202L397.799 196.161V195.826C397.799 195.425 397.694 195.131 397.484 194.944C397.275 194.757 396.983 194.664 396.609 194.664C396.24 194.664 395.878 194.716 395.522 194.821C395.167 194.926 394.812 195.058 394.456 195.218L393.766 193.81C394.171 193.595 394.625 193.427 395.126 193.304C395.632 193.181 396.154 193.119 396.691 193.119ZM397.799 197.378L396.992 197.405C396.318 197.424 395.848 197.544 395.584 197.768C395.324 197.991 395.194 198.285 395.194 198.649C395.194 198.968 395.288 199.196 395.475 199.333C395.661 199.465 395.905 199.531 396.206 199.531C396.653 199.531 397.029 199.399 397.334 199.135C397.644 198.87 397.799 198.494 397.799 198.007V197.378ZM405.243 199.395C405.471 199.395 405.692 199.372 405.906 199.326C406.125 199.281 406.341 199.224 406.556 199.155V200.707C406.332 200.807 406.054 200.889 405.722 200.953C405.394 201.021 405.034 201.056 404.642 201.056C404.186 201.056 403.776 200.983 403.411 200.837C403.051 200.687 402.766 200.429 402.557 200.064C402.352 199.695 402.249 199.183 402.249 198.526V194.842H401.251V193.96L402.399 193.263L403.001 191.649H404.334V193.276H406.474V194.842H404.334V198.526C404.334 198.818 404.416 199.037 404.58 199.183C404.749 199.324 404.97 199.395 405.243 199.395ZM411.327 199.395C411.555 199.395 411.776 199.372 411.99 199.326C412.209 199.281 412.425 199.224 412.64 199.155V200.707C412.416 200.807 412.138 200.889 411.806 200.953C411.478 201.021 411.118 201.056 410.726 201.056C410.27 201.056 409.86 200.983 409.495 200.837C409.135 200.687 408.85 200.429 408.641 200.064C408.436 199.695 408.333 199.183 408.333 198.526V194.842H407.335V193.96L408.483 193.263L409.085 191.649H410.418V193.276H412.558V194.842H410.418V198.526C410.418 198.818 410.5 199.037 410.664 199.183C410.833 199.324 411.054 199.395 411.327 199.395Z" fill="white"/>
<path d="M193.97 234.919L193.744 233.853H193.689C193.316 234.322 192.942 234.641 192.568 234.81C192.199 234.974 191.737 235.056 191.181 235.056C190.438 235.056 189.854 234.864 189.431 234.481C189.011 234.099 188.802 233.554 188.802 232.848C188.802 231.335 190.012 230.542 192.432 230.469L193.703 230.428V229.963C193.703 229.375 193.576 228.942 193.32 228.664C193.07 228.382 192.666 228.24 192.11 228.24C191.486 228.24 190.78 228.432 189.991 228.814L189.643 227.946C190.012 227.746 190.415 227.589 190.853 227.475C191.295 227.361 191.737 227.304 192.179 227.304C193.072 227.304 193.733 227.502 194.161 227.898C194.594 228.295 194.811 228.931 194.811 229.806V234.919H193.97ZM191.406 234.119C192.113 234.119 192.666 233.925 193.067 233.538C193.473 233.151 193.676 232.608 193.676 231.911V231.234L192.541 231.282C191.639 231.314 190.987 231.455 190.586 231.706C190.189 231.952 189.991 232.337 189.991 232.861C189.991 233.271 190.114 233.584 190.36 233.798C190.611 234.012 190.96 234.119 191.406 234.119ZM198.222 227.427V232.287C198.222 232.898 198.361 233.354 198.639 233.654C198.917 233.955 199.352 234.105 199.944 234.105C200.728 234.105 201.3 233.891 201.66 233.463C202.025 233.035 202.207 232.335 202.207 231.364V227.427H203.342V234.919H202.405L202.241 233.914H202.18C201.947 234.283 201.624 234.566 201.209 234.762C200.799 234.958 200.329 235.056 199.801 235.056C198.889 235.056 198.206 234.839 197.75 234.406C197.299 233.973 197.073 233.281 197.073 232.328V227.427H198.222ZM209.132 228.309H207.225V234.919H206.09V228.309H204.75V227.796L206.09 227.386V226.969C206.09 225.128 206.894 224.207 208.503 224.207C208.899 224.207 209.364 224.287 209.897 224.446L209.604 225.355C209.166 225.214 208.792 225.144 208.482 225.144C208.054 225.144 207.737 225.287 207.532 225.574C207.327 225.857 207.225 226.312 207.225 226.941V227.427H209.132V228.309ZM219.235 233.914H219.174C218.65 234.675 217.866 235.056 216.822 235.056C215.842 235.056 215.079 234.721 214.532 234.051C213.99 233.381 213.719 232.428 213.719 231.193C213.719 229.958 213.992 228.999 214.539 228.315C215.086 227.632 215.847 227.29 216.822 227.29C217.839 227.29 218.618 227.659 219.16 228.397H219.249L219.201 227.857L219.174 227.331V224.282H220.309V234.919H219.386L219.235 233.914ZM216.966 234.105C217.741 234.105 218.301 233.896 218.647 233.477C218.998 233.053 219.174 232.371 219.174 231.433V231.193C219.174 230.132 218.996 229.375 218.641 228.924C218.29 228.468 217.727 228.24 216.952 228.24C216.287 228.24 215.776 228.5 215.421 229.02C215.07 229.535 214.895 230.264 214.895 231.207C214.895 232.164 215.07 232.886 215.421 233.374C215.772 233.862 216.287 234.105 216.966 234.105ZM223.856 234.919H222.722V227.427H223.856V234.919ZM222.626 225.396C222.626 225.137 222.69 224.948 222.817 224.829C222.945 224.706 223.104 224.645 223.296 224.645C223.478 224.645 223.635 224.706 223.768 224.829C223.9 224.952 223.966 225.141 223.966 225.396C223.966 225.652 223.9 225.843 223.768 225.971C223.635 226.094 223.478 226.155 223.296 226.155C223.104 226.155 222.945 226.094 222.817 225.971C222.69 225.843 222.626 225.652 222.626 225.396ZM229.428 235.056C228.32 235.056 227.445 234.718 226.803 234.044C226.165 233.369 225.846 232.433 225.846 231.234C225.846 230.027 226.142 229.067 226.734 228.356C227.331 227.646 228.131 227.29 229.134 227.29C230.073 227.29 230.815 227.6 231.362 228.22C231.909 228.835 232.183 229.648 232.183 230.66V231.378H227.021C227.044 232.257 227.265 232.925 227.685 233.381C228.108 233.837 228.703 234.064 229.469 234.064C230.275 234.064 231.073 233.896 231.861 233.559V234.57C231.46 234.743 231.08 234.867 230.72 234.939C230.364 235.017 229.934 235.056 229.428 235.056ZM229.12 228.24C228.519 228.24 228.038 228.436 227.678 228.828C227.322 229.22 227.113 229.762 227.049 230.455H230.966C230.966 229.74 230.806 229.193 230.487 228.814C230.168 228.432 229.713 228.24 229.12 228.24ZM240.926 235.056C239.818 235.056 238.943 234.718 238.301 234.044C237.663 233.369 237.344 232.433 237.344 231.234C237.344 230.027 237.64 229.067 238.232 228.356C238.829 227.646 239.629 227.29 240.632 227.29C241.571 227.29 242.313 227.6 242.86 228.22C243.407 228.835 243.681 229.648 243.681 230.66V231.378H238.52C238.542 232.257 238.763 232.925 239.183 233.381C239.606 233.837 240.201 234.064 240.967 234.064C241.773 234.064 242.571 233.896 243.359 233.559V234.57C242.958 234.743 242.578 234.867 242.218 234.939C241.862 235.017 241.432 235.056 240.926 235.056ZM240.618 228.24C240.017 228.24 239.536 228.436 239.176 228.828C238.82 229.22 238.611 229.762 238.547 230.455H242.464C242.464 229.74 242.304 229.193 241.985 228.814C241.666 228.432 241.211 228.24 240.618 228.24ZM249.04 227.29C249.373 227.29 249.671 227.317 249.936 227.372L249.778 228.425C249.468 228.356 249.195 228.322 248.958 228.322C248.352 228.322 247.832 228.568 247.399 229.061C246.971 229.553 246.757 230.166 246.757 230.899V234.919H245.622V227.427H246.559L246.688 228.814H246.743C247.021 228.327 247.356 227.951 247.748 227.687C248.14 227.422 248.571 227.29 249.04 227.29ZM256.17 232.875C256.17 233.572 255.91 234.11 255.391 234.488C254.871 234.867 254.142 235.056 253.203 235.056C252.21 235.056 251.435 234.898 250.879 234.584V233.531C251.239 233.714 251.624 233.857 252.034 233.962C252.449 234.067 252.848 234.119 253.23 234.119C253.823 234.119 254.279 234.026 254.598 233.839C254.917 233.647 255.076 233.358 255.076 232.971C255.076 232.679 254.949 232.431 254.693 232.226C254.443 232.016 253.951 231.77 253.217 231.487C252.52 231.228 252.023 231.002 251.727 230.811C251.435 230.615 251.216 230.394 251.07 230.147C250.929 229.901 250.858 229.607 250.858 229.266C250.858 228.655 251.107 228.174 251.604 227.823C252.1 227.468 252.782 227.29 253.647 227.29C254.454 227.29 255.243 227.454 256.013 227.782L255.609 228.705C254.857 228.395 254.176 228.24 253.565 228.24C253.028 228.24 252.622 228.325 252.349 228.493C252.075 228.662 251.938 228.894 251.938 229.19C251.938 229.391 251.989 229.562 252.089 229.703C252.194 229.844 252.36 229.979 252.588 230.106C252.816 230.234 253.253 230.419 253.9 230.66C254.789 230.984 255.388 231.31 255.698 231.638C256.013 231.966 256.17 232.378 256.17 232.875ZM260.442 234.119C260.643 234.119 260.837 234.105 261.023 234.078C261.21 234.046 261.358 234.014 261.468 233.982V234.851C261.345 234.91 261.162 234.958 260.921 234.994C260.684 235.035 260.47 235.056 260.278 235.056C258.829 235.056 258.104 234.292 258.104 232.766V228.309H257.031V227.762L258.104 227.29L258.583 225.69H259.239V227.427H261.413V228.309H259.239V232.718C259.239 233.169 259.346 233.515 259.561 233.757C259.775 233.998 260.069 234.119 260.442 234.119ZM266.137 235.056C265.029 235.056 264.154 234.718 263.512 234.044C262.874 233.369 262.555 232.433 262.555 231.234C262.555 230.027 262.851 229.067 263.443 228.356C264.04 227.646 264.84 227.29 265.843 227.29C266.782 227.29 267.524 227.6 268.071 228.22C268.618 228.835 268.892 229.648 268.892 230.66V231.378H263.73C263.753 232.257 263.974 232.925 264.394 233.381C264.817 233.837 265.412 234.064 266.178 234.064C266.984 234.064 267.782 233.896 268.57 233.559V234.57C268.169 234.743 267.789 234.867 267.429 234.939C267.073 235.017 266.643 235.056 266.137 235.056ZM265.829 228.24C265.228 228.24 264.747 228.436 264.387 228.828C264.031 229.22 263.822 229.762 263.758 230.455H267.675C267.675 229.74 267.515 229.193 267.196 228.814C266.877 228.432 266.422 228.24 265.829 228.24ZM275.96 234.919V230.072C275.96 229.462 275.821 229.006 275.543 228.705C275.265 228.404 274.83 228.254 274.237 228.254C273.453 228.254 272.879 228.466 272.515 228.89C272.15 229.313 271.968 230.013 271.968 230.988V234.919H270.833V227.427H271.756L271.94 228.452H271.995C272.228 228.083 272.553 227.798 272.973 227.598C273.392 227.393 273.859 227.29 274.374 227.29C275.276 227.29 275.955 227.509 276.411 227.946C276.867 228.379 277.095 229.074 277.095 230.031V234.919H275.96ZM289.591 232.622H288.107V234.919H287.021V232.622H282.16V231.631L286.904 224.87H288.107V231.59H289.591V232.622ZM287.021 231.59V228.268C287.021 227.616 287.043 226.88 287.089 226.06H287.034C286.815 226.497 286.61 226.859 286.419 227.146L283.295 231.59H287.021ZM294.889 234.919V224.925H296.051V233.866H300.46V234.919H294.889ZM303.126 234.919H301.991V227.427H303.126V234.919ZM301.896 225.396C301.896 225.137 301.959 224.948 302.087 224.829C302.215 224.706 302.374 224.645 302.565 224.645C302.748 224.645 302.905 224.706 303.037 224.829C303.169 224.952 303.235 225.141 303.235 225.396C303.235 225.652 303.169 225.843 303.037 225.971C302.905 226.094 302.748 226.155 302.565 226.155C302.374 226.155 302.215 226.094 302.087 225.971C301.959 225.843 301.896 225.652 301.896 225.396ZM308.697 235.056C307.59 235.056 306.715 234.718 306.072 234.044C305.434 233.369 305.115 232.433 305.115 231.234C305.115 230.027 305.411 229.067 306.004 228.356C306.601 227.646 307.401 227.29 308.403 227.29C309.342 227.29 310.085 227.6 310.632 228.22C311.179 228.835 311.452 229.648 311.452 230.66V231.378H306.291C306.314 232.257 306.535 232.925 306.954 233.381C307.378 233.837 307.973 234.064 308.738 234.064C309.545 234.064 310.342 233.896 311.131 233.559V234.57C310.73 234.743 310.349 234.867 309.989 234.939C309.634 235.017 309.203 235.056 308.697 235.056ZM308.39 228.24C307.788 228.24 307.307 228.436 306.947 228.828C306.592 229.22 306.382 229.762 306.318 230.455H310.235C310.235 229.74 310.076 229.193 309.757 228.814C309.438 228.432 308.982 228.24 308.39 228.24ZM316.771 228.309H314.863V234.919H313.729V228.309H312.389V227.796L313.729 227.386V226.969C313.729 225.128 314.533 224.207 316.142 224.207C316.538 224.207 317.003 224.287 317.536 224.446L317.242 225.355C316.805 225.214 316.431 225.144 316.121 225.144C315.693 225.144 315.376 225.287 315.171 225.574C314.966 225.857 314.863 226.312 314.863 226.941V227.427H316.771V228.309ZM321.303 235.056C320.195 235.056 319.32 234.718 318.678 234.044C318.04 233.369 317.721 232.433 317.721 231.234C317.721 230.027 318.017 229.067 318.609 228.356C319.206 227.646 320.006 227.29 321.009 227.29C321.948 227.29 322.69 227.6 323.237 228.22C323.784 228.835 324.058 229.648 324.058 230.66V231.378H318.896C318.919 232.257 319.14 232.925 319.56 233.381C319.983 233.837 320.578 234.064 321.344 234.064C322.15 234.064 322.948 233.896 323.736 233.559V234.57C323.335 234.743 322.955 234.867 322.595 234.939C322.239 235.017 321.809 235.056 321.303 235.056ZM320.995 228.24C320.394 228.24 319.913 228.436 319.553 228.828C319.197 229.22 318.988 229.762 318.924 230.455H322.841C322.841 229.74 322.681 229.193 322.362 228.814C322.043 228.432 321.588 228.24 320.995 228.24ZM329.417 227.29C329.75 227.29 330.048 227.317 330.312 227.372L330.155 228.425C329.845 228.356 329.572 228.322 329.335 228.322C328.729 228.322 328.209 228.568 327.776 229.061C327.348 229.553 327.134 230.166 327.134 230.899V234.919H325.999V227.427H326.936L327.065 228.814H327.12C327.398 228.327 327.733 227.951 328.125 227.687C328.517 227.422 328.948 227.29 329.417 227.29ZM332.78 227.427V232.287C332.78 232.898 332.919 233.354 333.197 233.654C333.475 233.955 333.91 234.105 334.503 234.105C335.287 234.105 335.859 233.891 336.219 233.463C336.583 233.035 336.766 232.335 336.766 231.364V227.427H337.9V234.919H336.964L336.8 233.914H336.738C336.506 234.283 336.182 234.566 335.768 234.762C335.357 234.958 334.888 235.056 334.359 235.056C333.448 235.056 332.764 234.839 332.309 234.406C331.857 233.973 331.632 233.281 331.632 232.328V227.427H332.78ZM345.44 234.919V230.072C345.44 229.462 345.301 229.006 345.023 228.705C344.745 228.404 344.31 228.254 343.718 228.254C342.934 228.254 342.36 228.466 341.995 228.89C341.631 229.313 341.448 230.013 341.448 230.988V234.919H340.313V227.427H341.236L341.421 228.452H341.476C341.708 228.083 342.034 227.798 342.453 227.598C342.872 227.393 343.34 227.29 343.854 227.29C344.757 227.29 345.436 227.509 345.892 227.946C346.347 228.379 346.575 229.074 346.575 230.031V234.919H345.44ZM355.045 227.427V228.145L353.657 228.309C353.785 228.468 353.899 228.678 353.999 228.938C354.099 229.193 354.149 229.482 354.149 229.806C354.149 230.539 353.899 231.125 353.397 231.562C352.896 232 352.208 232.219 351.333 232.219C351.11 232.219 350.9 232.201 350.704 232.164C350.221 232.419 349.979 232.741 349.979 233.128C349.979 233.333 350.064 233.486 350.232 233.586C350.401 233.682 350.69 233.729 351.101 233.729H352.427C353.238 233.729 353.86 233.9 354.293 234.242C354.73 234.584 354.949 235.081 354.949 235.732C354.949 236.562 354.617 237.193 353.951 237.626C353.286 238.063 352.315 238.282 351.039 238.282C350.059 238.282 349.303 238.1 348.77 237.735C348.241 237.371 347.977 236.856 347.977 236.19C347.977 235.735 348.122 235.34 348.414 235.008C348.706 234.675 349.116 234.45 349.645 234.331C349.453 234.244 349.291 234.11 349.159 233.928C349.032 233.745 348.968 233.534 348.968 233.292C348.968 233.019 349.041 232.779 349.187 232.574C349.332 232.369 349.562 232.171 349.877 231.979C349.49 231.82 349.173 231.549 348.927 231.166C348.685 230.783 348.564 230.346 348.564 229.854C348.564 229.033 348.811 228.402 349.303 227.96C349.795 227.513 350.492 227.29 351.395 227.29C351.786 227.29 352.14 227.336 352.454 227.427H355.045ZM349.07 236.177C349.07 236.582 349.241 236.89 349.583 237.1C349.925 237.309 350.415 237.414 351.053 237.414C352.005 237.414 352.709 237.271 353.165 236.983C353.625 236.701 353.855 236.316 353.855 235.828C353.855 235.423 353.73 235.14 353.479 234.98C353.229 234.826 352.757 234.748 352.064 234.748H350.704C350.189 234.748 349.788 234.871 349.501 235.117C349.214 235.363 349.07 235.716 349.07 236.177ZM349.686 229.826C349.686 230.35 349.834 230.747 350.13 231.016C350.426 231.285 350.839 231.419 351.367 231.419C352.475 231.419 353.028 230.881 353.028 229.806C353.028 228.68 352.468 228.117 351.347 228.117C350.813 228.117 350.403 228.261 350.116 228.548C349.829 228.835 349.686 229.261 349.686 229.826ZM359.748 235.056C358.641 235.056 357.766 234.718 357.123 234.044C356.485 233.369 356.166 232.433 356.166 231.234C356.166 230.027 356.462 229.067 357.055 228.356C357.652 227.646 358.451 227.29 359.454 227.29C360.393 227.29 361.136 227.6 361.683 228.22C362.229 228.835 362.503 229.648 362.503 230.66V231.378H357.342C357.365 232.257 357.586 232.925 358.005 233.381C358.429 233.837 359.023 234.064 359.789 234.064C360.596 234.064 361.393 233.896 362.182 233.559V234.57C361.781 234.743 361.4 234.867 361.04 234.939C360.685 235.017 360.254 235.056 359.748 235.056ZM359.44 228.24C358.839 228.24 358.358 228.436 357.998 228.828C357.643 229.22 357.433 229.762 357.369 230.455H361.286C361.286 229.74 361.127 229.193 360.808 228.814C360.489 228.432 360.033 228.24 359.44 228.24ZM369.571 234.919V230.072C369.571 229.462 369.432 229.006 369.154 228.705C368.876 228.404 368.441 228.254 367.849 228.254C367.065 228.254 366.491 228.466 366.126 228.89C365.761 229.313 365.579 230.013 365.579 230.988V234.919H364.444V227.427H365.367L365.552 228.452H365.606C365.839 228.083 366.165 227.798 366.584 227.598C367.003 227.393 367.47 227.29 367.985 227.29C368.888 227.29 369.567 227.509 370.022 227.946C370.478 228.379 370.706 229.074 370.706 230.031V234.919H369.571Z" fill="white"/>
</svg>
