<svg width="328" height="250" viewBox="0 0 328 250" fill="none" xmlns="http://www.w3.org/2000/svg"><rect width="328" height="249.9" rx="16" fill="#81A490"/><path d="M73 46h-5V27.1a27 27 0 0 1-1.7 1.7L63.5 31 61 28l7.8-6.3H73V46Zm23.6-12.1c0 4.2-.7 7.3-2 9.4-1.5 2-3.6 3-6.5 3-2.8 0-4.9-1-6.3-3.1a16.7 16.7 0 0 1-2.1-9.3c0-4.3.6-7.5 2-9.5s3.5-3 6.4-3c2.8 0 5 1 6.4 3.1 1.4 2.2 2.1 5.3 2.1 9.4Zm-11.9 0c0 3 .3 5 .8 6.4.5 1.3 1.4 1.9 2.6 1.9 1.2 0 2-.7 2.6-2 .5-1.3.8-3.4.8-6.3 0-3-.3-5.1-.8-6.4-.5-1.3-1.4-2-2.6-2-1.2 0-2 .7-2.6 2-.5 1.3-.8 3.4-.8 6.4Zm31.3 0c0 4.2-.7 7.3-2 9.4-1.4 2-3.6 3-6.5 3-2.8 0-4.9-1-6.3-3.1a16.7 16.7 0 0 1-2.1-9.3c0-4.3.7-7.5 2-9.5 1.4-2 3.6-3 6.4-3 2.8 0 5 1 6.4 3.1 1.4 2.2 2.1 5.3 2.1 9.4Zm-11.8 0c0 3 .2 5 .7 6.4.6 1.3 1.4 1.9 2.6 1.9 1.2 0 2.1-.7 2.6-2 .6-1.3.8-3.4.8-6.3 0-3-.2-5.1-.8-6.4-.5-1.3-1.4-2-2.6-2-1.2 0-2 .7-2.5 2-.6 1.3-.8 3.4-.8 6.4Zm26.4-8.2c-1.3 0-2.5.4-3.3 1.1-1 .8-1.5 2-1.7 3.4h6.7v3h-7V35h6v3h-5.7c.6 2.6 2.3 4 5.3 4 1.6 0 3.1-.4 4.6-1v4.3c-1.3.6-3 1-4.9 1-2.7 0-5-.8-6.7-2.3a9.9 9.9 0 0 1-3.3-6h-2.2v-3h2l-.1-1v-1h-2v-2.9h2.3a10 10 0 0 1 3.3-6.3c1.8-1.6 4-2.4 6.7-2.4 2 0 4 .5 5.8 1.4l-1.6 3.9c-.7-.4-1.5-.6-2.1-.8l-2.1-.3Zm30.5 14.8c0 1.9-.6 3.3-2 4.3-1.3 1-3.3 1.5-5.9 1.5-1.3 0-2.5 0-3.4-.3-1-.1-1.9-.4-2.7-.7V41a17.7 17.7 0 0 0 6.3 1.5c1.8 0 2.7-.5 2.7-1.6 0-.4 0-.7-.3-1a29.5 29.5 0 0 0-3.7-2c-1.4-.5-2.5-1-3.1-1.5-.7-.6-1.2-1.1-1.5-1.8a6 6 0 0 1-.4-2.4c0-1.7.6-3 1.9-3.8 1.2-1 3-1.4 5.4-1.4 2.2 0 4.4.5 6.5 1.5l-1.5 3.6a28 28 0 0 0-2.6-1c-.8-.2-1.6-.4-2.5-.4-1.5 0-2.2.4-2.2 1.3 0 .4.2.8.7 1.1.5.4 1.5.9 3.2 1.5 1.4.6 2.5 1.1 3.2 1.7.6.5 1.1 1 1.5 1.7.3.7.4 1.5.4 2.4Zm14.2 5.8c-2.2 0-4-.8-5.2-2.3h-.2l.2 2.6v7.6h-5V27.4h4.1l.7 2.4h.2c1.2-1.8 3-2.7 5.3-2.7a6 6 0 0 1 5.2 2.5c1.2 1.7 1.8 4 1.8 7 0 2-.3 3.8-.9 5.2a7.2 7.2 0 0 1-2.4 3.4c-1.1.8-2.4 1.1-3.8 1.1Zm-1.5-15.2c-1.3 0-2.2.4-2.8 1.2-.5.8-.8 2-.9 3.8v.6c0 2 .3 3.4 1 4.2.5.9 1.5 1.3 2.8 1.3 2.2 0 3.4-1.8 3.4-5.6 0-1.8-.3-3.2-.9-4-.5-1-1.4-1.5-2.6-1.5ZM198.4 46l-1-2.5h-.1c-.9 1-1.8 1.8-2.7 2.2-.9.4-2 .6-3.5.6-1.8 0-3.2-.5-4.2-1.5s-1.5-2.5-1.5-4.3c0-2 .7-3.5 2-4.4a12 12 0 0 1 6.3-1.6h3.2v-.9c0-1.8-1-2.8-2.9-2.8-1.5 0-3.2.5-5.2 1.4l-1.7-3.5a15 15 0 0 1 7.1-1.6c2.5 0 4.4.5 5.7 1.6 1.4 1 2 2.7 2 5V46h-3.5Zm-1.5-8.6h-2c-1.4.1-2.5.4-3.3.9-.7.5-1 1.2-1 2.2 0 1.4.8 2.1 2.4 2.1 1.2 0 2.1-.3 2.8-1 .7-.7 1-1.6 1-2.7v-1.5Zm20.6-10.3 1.7.1-.4 4.8-1.5-.2c-1.6 0-2.8.4-3.7 1.3-1 .8-1.4 2-1.4 3.5V46h-5V27.4h3.8l.7 3.2h.3a7 7 0 0 1 2.3-2.5c1-.7 2-1 3.2-1Zm12.8 3.6c-1 0-2 .3-2.5 1-.7.7-1 1.7-1 3h7c0-1.3-.3-2.3-1-3-.6-.7-1.4-1-2.5-1Zm.7 15.6c-3 0-5.3-.8-7-2.4-1.7-1.7-2.5-4-2.5-7 0-3.2.7-5.6 2.3-7.3a8.3 8.3 0 0 1 6.4-2.5c2.7 0 4.7.7 6.2 2.2a8.5 8.5 0 0 1 2.2 6.2V38h-12c0 1.4.5 2.5 1.3 3.4.8.8 1.9 1.2 3.3 1.2a14 14 0 0 0 6.3-1.5v4c-.9.4-1.8.7-2.8.9-1 .2-2.3.3-3.7.3Zm28.8-.3h-5V35.2c0-1.4-.3-2.4-.8-3-.4-.7-1.2-1-2.2-1-1.5 0-2.5.4-3.1 1.4-.6 1-1 2.5-1 4.7V46h-5V27.4h3.8l.7 2.4h.3c.6-.9 1.3-1.6 2.3-2a8 8 0 0 1 3.4-.7c2.2 0 3.8.6 5 1.8 1 1.1 1.6 2.8 1.6 5V46ZM63.2 75.6h-3.4v-1.9h3.4v-3.4H65v3.4h3.4v2h-3.4V79h-2v-3.4ZM83.7 81h-9v-1.9l3.2-3.3 1.9-2 .6-1 .2-1c0-.6-.1-1-.4-1.2-.3-.2-.7-.4-1.2-.4s-1 .1-1.4.4c-.5.2-1 .5-1.5 1l-1.5-1.8c.7-.5 1.2-1 1.6-1.1.4-.3.9-.4 1.4-.5.5-.2 1-.2 1.6-.2.8 0 1.5.1 2.2.4.6.3 1 .7 1.4 1.2.3.6.5 1.2.5 1.8 0 .6-.1 1.2-.3 1.7-.2.5-.5 1-1 1.6-.4.6-1.2 1.3-2.3 2.3l-1.6 1.6v.1h5.6V81Zm11.7-7.2h5.1v6.6a14 14 0 0 1-4.6.8c-1.9 0-3.4-.6-4.4-1.7-1-1.2-1.5-2.8-1.5-5 0-2 .6-3.6 1.7-4.8a6.8 6.8 0 0 1 5-1.7c1.3 0 2.6.2 3.8.8l-1 2.1c-.8-.4-1.8-.7-2.8-.7-1.2 0-2.2.4-2.9 1.2-.7.8-1 1.9-1 3.2 0 1.4.3 2.5.8 3.2.6.7 1.4 1.1 2.5 1.1.6 0 1.2 0 1.7-.2v-2.6h-2.4v-2.3Zm12-.9c-.5 0-1 .2-1.3.5-.3.4-.5 1-.6 1.6h3.8c0-.7-.2-1.2-.5-1.6-.3-.3-.8-.5-1.4-.5Zm.4 8.3a5 5 0 0 1-3.7-1.3c-.9-1-1.3-2.1-1.3-3.7 0-1.7.4-3 1.2-3.9.8-.9 2-1.3 3.4-1.3s2.5.4 3.3 1.2c.7.8 1.1 1.9 1.1 3.3v1.3h-6.3c0 .7.2 1.3.7 1.7.4.5 1 .7 1.7.7a7.4 7.4 0 0 0 3.4-.8v2l-1.5.6-2 .2Zm13-3.1c0 1-.3 1.8-1 2.3-.7.5-1.7.8-3.1.8-.8 0-1.4 0-1.9-.2-.5 0-1-.2-1.4-.4v-2.2a9.4 9.4 0 0 0 3.4.8c1 0 1.4-.3 1.4-.8 0-.2 0-.4-.2-.5l-.6-.5-1.3-.6a8 8 0 0 1-1.7-.9c-.3-.2-.6-.5-.8-.9l-.2-1.3c0-.8.3-1.5 1-2a5 5 0 0 1 2.9-.7c1.2 0 2.3.2 3.5.8l-.9 1.9-1.3-.5c-.5-.2-.9-.2-1.3-.2-.8 0-1.2.2-1.2.6 0 .3 0 .5.3.6l1.7.8c.8.3 1.4.6 1.7.9.4.3.6.6.8 1 .2.3.3.7.3 1.2Zm6.1 3c-3 0-4.5-1.6-4.5-5 0-1.6.4-2.9 1.2-3.8.8-.9 2-1.3 3.6-1.3 1.1 0 2.1.2 3 .7l-.8 2-1.1-.4-1.1-.1c-1.4 0-2.1 1-2.1 3 0 1.8.7 2.8 2 2.8a4.9 4.9 0 0 0 2.8-.8v2.2c-.4.3-.8.5-1.3.6l-1.7.2Zm14.4-.1h-2.7v-5.7c0-1.5-.5-2.2-1.6-2.2-.7 0-1.3.3-1.6.8-.3.5-.5 1.3-.5 2.5V81h-2.7V67.3h2.7v4.3l-.1.8h.1c.6-1 1.6-1.4 2.9-1.4 1.1 0 2 .3 2.6 1 .6.5.9 1.4.9 2.6V81Zm6.8-8.1c-.6 0-1 .2-1.3.5-.3.4-.5 1-.6 1.6h3.8c0-.7-.2-1.2-.5-1.6-.4-.3-.8-.5-1.4-.5Zm.4 8.3a5 5 0 0 1-3.7-1.3c-1-1-1.4-2.1-1.4-3.7 0-1.7.5-3 1.3-3.9.8-.9 2-1.3 3.4-1.3s2.5.4 3.2 1.2c.8.8 1.2 1.9 1.2 3.3v1.3h-6.3c0 .7.2 1.3.6 1.7.5.5 1 .7 1.8.7a7.4 7.4 0 0 0 3.3-.8v2c-.4.3-1 .5-1.5.6l-2 .2Zm15.2-.2h-2.6v-5.7c0-.7-.2-1.3-.4-1.6-.3-.4-.7-.6-1.2-.6-.8 0-1.3.3-1.6.8-.4.5-.5 1.3-.5 2.5V81h-2.7v-9.8h2l.4 1.2h.1c.3-.4.7-.8 1.3-1 .5-.3 1-.4 1.8-.4 1.1 0 2 .3 2.6 1 .6.5.8 1.4.8 2.6V81Zm5.4-5.3 1.2-1.5 2.7-3h3l-3.9 4.2 4.2 5.6h-3.1l-2.9-4-1.1 1v3h-2.7V67.3h2.7v6.1l-.2 2.3Zm12.6-2.8c-.5 0-1 .2-1.3.5-.3.4-.5 1-.6 1.6h3.8c0-.7-.2-1.2-.5-1.6-.3-.3-.8-.5-1.4-.5Zm.4 8.3a5 5 0 0 1-3.7-1.3c-.9-1-1.3-2.1-1.3-3.7 0-1.7.4-3 1.2-3.9.8-.9 2-1.3 3.4-1.3s2.5.4 3.3 1.2c.7.8 1.1 1.9 1.1 3.3v1.3h-6.3c0 .7.2 1.3.7 1.7.4.5 1 .7 1.7.7a7.4 7.4 0 0 0 3.4-.8v2l-1.5.6-2 .2Zm15-8.3c-.6 0-1 .2-1.4.5-.3.4-.5 1-.5 1.6h3.7c0-.7-.2-1.2-.5-1.6-.3-.3-.8-.5-1.3-.5Zm.3 8.3a5 5 0 0 1-3.7-1.3c-.9-1-1.3-2.1-1.3-3.7 0-1.7.4-3 1.2-3.9.8-.9 2-1.3 3.4-1.3s2.5.4 3.3 1.2c.7.8 1.1 1.9 1.1 3.3v1.3h-6.3c0 .7.3 1.3.7 1.7.4.5 1 .7 1.8.7a7.4 7.4 0 0 0 3.3-.8v2l-1.5.6-2 .2ZM209.1 71h1l-.3 2.6a3 3 0 0 0-.8-.1c-.8 0-1.5.2-2 .7-.5.4-.7 1-.7 1.8v5h-2.7v-9.8h2l.4 1.6h.2c.3-.5.7-1 1.2-1.3a3 3 0 0 1 1.7-.5Zm11.8 10h-2.7v-5.7c0-1.5-.5-2.2-1.6-2.2-.8 0-1.3.3-1.6.8-.4.5-.5 1.3-.5 2.5V81h-2.7V67.3h2.7v4.3l-.2.8h.2c.6-1 1.5-1.4 2.8-1.4 1.2 0 2 .3 2.7 1 .6.5.9 1.4.9 2.6V81Zm9 0-.6-1.3c-.5.5-1 1-1.4 1.2-.5.2-1.1.3-1.9.3a3 3 0 0 1-2.2-.8c-.6-.6-.8-1.3-.8-2.3 0-1 .3-1.8 1-2.3.8-.5 1.9-.8 3.4-.9h1.7v-.4c0-1-.5-1.5-1.6-1.5a7 7 0 0 0-2.7.7l-1-1.8a8 8 0 0 1 3.8-1c1.4 0 2.4.4 3 1 .8.5 1.1 1.4 1.1 2.6V81H230Zm-.8-4.6h-1c-.8.1-1.4.2-1.8.5-.4.3-.6.7-.6 1.2 0 .7.5 1.1 1.3 1.1a2 2 0 0 0 1.5-.5c.4-.4.6-.9.6-1.4v-.9Zm8 4.6h-2.6V67.3h2.7V81Zm7-2c.5 0 1 0 1.7-.3v2a6 6 0 0 1-2.4.5c-1.1 0-1.9-.3-2.4-.8-.5-.6-.7-1.4-.7-2.5v-4.7H239V72l1.5-1 .8-2h1.7v2h2.7v2H243V78c0 .4 0 .7.3.9l.8.2ZM252 73c-.6 0-1 .2-1.3.5-.4.4-.5 1-.6 1.6h3.8c0-.7-.2-1.2-.6-1.6-.3-.3-.7-.5-1.3-.5Zm.4 8.3a5 5 0 0 1-3.7-1.3c-1-1-1.4-2.1-1.4-3.7 0-1.7.4-3 1.3-3.9.8-.9 2-1.3 3.4-1.3s2.4.4 3.2 1.2c.8.8 1.2 1.9 1.2 3.3v1.3h-6.4c0 .7.3 1.3.7 1.7.4.5 1 .7 1.8.7a7.4 7.4 0 0 0 3.3-.8v2c-.4.3-1 .5-1.5.6l-2 .2Zm15.2-.2h-2.7v-5.7c0-.7 0-1.3-.3-1.6-.3-.4-.7-.6-1.2-.6-.8 0-1.3.3-1.7.8-.3.5-.5 1.3-.5 2.5V81h-2.6v-9.8h2l.4 1.2h.1c.3-.4.7-.8 1.2-1 .6-.3 1.2-.4 1.8-.4 1.2 0 2 .3 2.6 1 .6.5 1 1.4 1 2.6V81Z" fill="#fff"/><path fill-rule="evenodd" clip-rule="evenodd" d="M0 91v20a10 10 0 1 0 0-20Z" fill="#F6F5F1"/><path fill="#fff" d="M26 100.5h276v1H26z"/><path fill-rule="evenodd" clip-rule="evenodd" d="M328 111V91a10 10 0 1 0 0 20Z" fill="#F6F5F1"/><path fill-rule="evenodd" clip-rule="evenodd" d="M53.4 119.2a2.7 2.7 0 0 1 2.2 0l13.7 6a2.7 2.7 0 0 1 1.7 2.5v15.5a2.7 2.7 0 0 1-1.6 2.4l-13.1 6-.6.2a1.4 1.4 0 0 1-1 0l-.6-.1-14.4-6A2.7 2.7 0 0 1 38 143v-15.4a2.7 2.7 0 0 1 1.7-2.5l13.7-6ZM41 129v14l12.8 5.5v-14.1L41 129Zm15.7 5.4v14L68 143v-14l-4.7 2.1-.2.1-6.6 3Zm6.1-6 3.4-1.5-11.6-5-3 1.2 11.2 5.3Zm-14.5-3.8 11.2 5.4-4.3 2-12-5.2 5-2.2Z" fill="#fff"/><path d="m42.2 177 3.8-8.3h-5v-1.8h7.2v1.4l-3.8 8.6h-2.2Zm14-5-.2 2c-.1.7-.3 1.3-.6 1.7-.3.4-.7.8-1.1 1-.5.2-1 .4-1.6.4a3 3 0 0 1-2-.7c-.5-.4-.9-1-1.1-1.7-.3-.8-.4-1.7-.4-2.8 0-1 0-2 .3-2.7.2-.8.6-1.4 1.1-1.8.5-.4 1.2-.6 2-.6a3 3 0 0 1 2 .6c.6.4 1 1 1.2 1.7.2.8.4 1.7.4 2.8Zm-5 0 .2 1.8c0 .5.2 1 .4 1.2.2.2.5.4.9.4.3 0 .6-.2.8-.4l.4-1.2a11.7 11.7 0 0 0 0-3.8c0-.5-.2-.9-.4-1.1a1 1 0 0 0-.8-.4 1 1 0 0 0-.9.4c-.2.2-.3.6-.4 1.1l-.1 2Zm11-5.2a5.4 5.4 0 0 1 2.4.6l-.7 1.6-.9-.3a3 3 0 0 0-.8-.2c-.3 0-.6 0-.8.2a1.8 1.8 0 0 0-1 1c-.2.2-.2.4-.3.7H63v1.2H60v.8h2.4v1.2h-2.3l.4 1 .8.5 1 .2a4.6 4.6 0 0 0 1.9-.4v1.8l-.9.3a5.5 5.5 0 0 1-3-.3c-.6-.3-1.1-.7-1.5-1.2-.3-.5-.6-1.1-.7-1.9h-1v-1.2h.8a7.2 7.2 0 0 0 0-.4v-.4h-.8v-1.2h1c0-.7.3-1.4.7-1.9.4-.5.8-1 1.4-1.2.6-.3 1.2-.5 2-.5ZM35 191c.9 0 1.6.1 2.2.4.6.2 1 .5 1.3 1 .3.4.5 1 .5 1.6a2.6 2.6 0 0 1-1 2 4 4 0 0 1-.9.7l3 4.3h-2.4l-2.4-3.8h-1.1v3.8h-2.1v-10H35Zm-.2 1.8h-.6v2.7h.7c.7 0 1.2-.2 1.5-.4.3-.2.4-.6.4-1 0-.5-.1-.8-.5-1a3 3 0 0 0-1.5-.3Zm9.5.4c1 0 1.8.2 2.3.7.6.4.8 1.1.8 2v5.1h-1.4l-.4-1-.7.7c-.3.1-.5.3-.8.3l-1.1.2c-.5 0-.9-.1-1.2-.3a2 2 0 0 1-.9-.8c-.2-.4-.3-.8-.3-1.4 0-.8.3-1.4.9-1.8a5 5 0 0 1 2.6-.6h1.3v-.4c0-.4-.1-.7-.3-.9l-1-.2-1 .1-1 .4-.8-1.4 1.4-.5 1.6-.2Zm1 4.3h-.7c-.7 0-1.2.1-1.4.4-.3.2-.4.5-.4.8 0 .4 0 .6.3.7.1.2.4.2.7.2.4 0 .8-.1 1.1-.4.3-.2.5-.6.5-1v-.7Zm6.4-7.1v2.5a13.3 13.3 0 0 1-.1 1.5l1-.8c.3-.3.7-.4 1.3-.4.8 0 1.5.4 2 1 .6.7.8 1.7.8 3 0 .9 0 1.6-.3 2.2a3 3 0 0 1-1 1.3c-.5.3-1 .5-1.6.5-.6 0-1-.1-1.3-.3a3 3 0 0 1-.8-.7h-.2l-.3.8h-1.6v-10.6h2Zm1.5 4.5c-.4 0-.7 0-.9.2l-.5.7-.1 1.1v.3c0 .7.1 1.3.3 1.7.2.4.6.6 1.2.6.4 0 .8-.2 1-.6.3-.4.4-1 .4-1.7a3 3 0 0 0-.4-1.7c-.2-.4-.6-.6-1-.6Zm8.4-1.7c1 0 1.8.2 2.3.7.6.4.9 1.1.9 2v5.1h-1.5l-.4-1-.7.7c-.2.1-.5.3-.8.3l-1 .2c-.5 0-1-.1-1.3-.3a2 2 0 0 1-.8-.8c-.2-.4-.3-.8-.3-1.4 0-.8.2-1.4.8-1.8a5 5 0 0 1 2.6-.6h1.3v-.4c0-.4-.1-.7-.3-.9l-.9-.2-1 .1-1.1.4-.7-1.4 1.3-.5 1.6-.2Zm1.1 4.3H62c-.7 0-1.2.1-1.4.4-.3.2-.4.5-.4.8 0 .4 0 .6.3.7.2.2.4.2.7.2.5 0 .8-.1 1.1-.4.3-.2.5-.6.5-1v-.7Zm7.4 2h.7l.7-.2v1.5l-.9.3h-1c-.5 0-1 0-1.3-.2-.3-.1-.6-.4-.8-.7-.2-.4-.4-1-.4-1.6v-3.7h-1v-.8l1.2-.7.6-1.7h1.3v1.7h2.2v1.5h-2.2v3.7c0 .3.1.5.3.7l.6.2Zm6.1 0h.7l.6-.2v1.5l-.8.3h-1c-.5 0-1 0-1.3-.2-.4-.1-.6-.4-.9-.7-.2-.4-.3-1-.3-1.6v-3.7h-1v-.8l1.2-.7.6-1.7h1.3v1.7h2.2v1.5h-2.2v3.7c0 .3.1.5.3.7l.6.2Z" fill="#fff"/><path fill-rule="evenodd" clip-rule="evenodd" d="M126.4 119.2a2.7 2.7 0 0 1 2.2 0l13.7 6c.5.2.9.6 1.2 1 .3.5.5 1 .5 1.5v15.5a2.7 2.7 0 0 1-1.6 2.4l-13.1 6-.6.2a1.4 1.4 0 0 1-1 0l-.6-.1-14.4-6a2.7 2.7 0 0 1-1.7-2.6v-15.4a2.7 2.7 0 0 1 1.7-2.5l13.7-6ZM114 129v14l12.8 5.5v-14.1L114 129Zm15.7 5.4v14L141 143v-14l-4.7 2.1-.2.1-6.6 3Zm6.1-6 3.4-1.5-11.6-5-3 1.2 11.2 5.3Zm-14.5-3.8 11.2 5.4-4.3 2-12-5.2 5-2.2Z" fill="#fff"/><path d="M119.4 177h-2V171a27.6 27.6 0 0 1 0-2l-.3.4c-.2 0-.3.2-.4.3l-1.2 1-1-1.3 3.2-2.6h1.7v10Zm9.8-5-.2 2c-.1.7-.3 1.3-.6 1.7-.3.4-.7.8-1.1 1-.5.2-1 .4-1.6.4-.8 0-1.5-.2-2-.7-.5-.4-.9-1-1.1-1.7-.3-.8-.4-1.7-.4-2.8 0-1 0-2 .3-2.7.2-.8.6-1.4 1.1-1.8.5-.4 1.2-.6 2-.6a3 3 0 0 1 2 .6c.6.4 1 1 1.2 1.7.2.8.4 1.7.4 2.8Zm-5 0 .2 1.8c0 .5.2 1 .4 1.2.2.2.5.4.9.4.3 0 .6-.2.8-.4l.4-1.2a11.8 11.8 0 0 0 0-3.8c0-.5-.2-.9-.4-1.1a1 1 0 0 0-.8-.4 1 1 0 0 0-.9.4c-.2.2-.3.6-.4 1.1l-.1 2Zm11-5.2a5.4 5.4 0 0 1 2.4.6l-.7 1.6-.9-.3a3 3 0 0 0-.8-.2c-.3 0-.6 0-.8.2a1.8 1.8 0 0 0-1 1c-.2.2-.2.4-.3.7h2.8v1.2H133v.8h2.4v1.2h-2.3l.4 1 .8.5 1 .2a4.6 4.6 0 0 0 1.9-.4v1.8l-.9.3a5.5 5.5 0 0 1-3-.3c-.6-.3-1.1-.7-1.5-1.2-.3-.5-.6-1.1-.7-1.9h-1v-1.2h.8a5.6 5.6 0 0 0 0-.4v-.4h-.8v-1.2h1c0-.7.3-1.4.7-1.9.4-.5.8-1 1.4-1.2.6-.3 1.2-.5 2-.5ZM108 191c.9 0 1.6.1 2.2.4.6.2 1 .5 1.3 1 .3.4.5 1 .5 1.6a2.6 2.6 0 0 1-1 2 4 4 0 0 1-.9.7l3 4.3h-2.4l-2.4-3.8h-1.1v3.8h-2.1v-10h2.9Zm-.2 1.8h-.6v2.7h.7c.7 0 1.2-.2 1.5-.4.3-.2.4-.6.4-1 0-.5-.1-.8-.5-1a3 3 0 0 0-1.5-.3Zm9.5.4c1 0 1.8.2 2.3.7.6.4.8 1.1.8 2v5.1h-1.4l-.4-1-.7.7c-.3.1-.5.3-.8.3l-1.1.2c-.5 0-.9-.1-1.2-.3a2 2 0 0 1-.9-.8c-.2-.4-.3-.8-.3-1.4 0-.8.3-1.4.9-1.8a5 5 0 0 1 2.6-.6h1.3v-.4c0-.4-.1-.7-.3-.9l-1-.2-1 .1-1 .4-.8-1.4 1.4-.5 1.6-.2Zm1 4.3h-.7c-.7 0-1.2.1-1.4.4-.3.2-.4.5-.4.8 0 .4 0 .6.3.7.1.2.4.2.7.2.4 0 .8-.1 1.1-.4.3-.2.5-.6.5-1v-.7Zm6.4-7.1v2.5a13.4 13.4 0 0 1-.1 1.5l1-.8c.3-.3.7-.4 1.3-.4.8 0 1.5.4 2 1 .6.7.8 1.7.8 3 0 .9 0 1.6-.3 2.2a3 3 0 0 1-1 1.3c-.5.3-1 .5-1.6.5-.6 0-1-.1-1.3-.3a3 3 0 0 1-.8-.7h-.2l-.3.8h-1.6v-10.6h2Zm1.5 4.5c-.4 0-.7 0-.9.2l-.5.7-.1 1.1v.3c0 .7.1 1.3.3 1.7.2.4.6.6 1.2.6.4 0 .8-.2 1-.6.3-.4.4-1 .4-1.7a3 3 0 0 0-.4-1.7c-.2-.4-.6-.6-1-.6Zm8.4-1.7c1 0 1.8.2 2.4.7.5.4.8 1.1.8 2v5.1h-1.5l-.4-1-.7.7c-.2.1-.5.3-.8.3l-1 .2c-.5 0-1-.1-1.3-.3a2 2 0 0 1-.8-.8c-.2-.4-.3-.8-.3-1.4 0-.8.2-1.4.8-1.8a5 5 0 0 1 2.6-.6h1.3v-.4c0-.4-.1-.7-.3-.9l-.9-.2-1 .1-1.1.4-.7-1.4 1.3-.5 1.6-.2Zm1.1 4.3h-.8c-.7 0-1.2.1-1.4.4-.3.2-.4.5-.4.8 0 .4 0 .6.3.7.2.2.4.2.7.2.5 0 .8-.1 1.1-.4.3-.2.5-.6.5-1v-.7Zm7.4 2h.7l.7-.2v1.5l-.9.3h-1c-.5 0-1 0-1.3-.2-.3-.1-.6-.4-.8-.7-.2-.4-.4-1-.4-1.6v-3.7h-1v-.8l1.2-.7.6-1.7h1.3v1.7h2.2v1.5h-2.2v3.7c0 .3.1.5.3.7l.6.2Zm6.1 0h.7l.6-.2v1.5l-.8.3h-1c-.5 0-1 0-1.3-.2-.4-.1-.7-.4-.9-.7-.2-.4-.3-1-.3-1.6v-3.7h-1v-.8l1.2-.7.6-1.7h1.3v1.7h2.2v1.5h-2.2v3.7c0 .3.1.5.3.7l.6.2Z" fill="#fff"/><path fill-rule="evenodd" clip-rule="evenodd" d="M199.4 119.2a2.7 2.7 0 0 1 2.2 0l13.7 6c.5.2.9.6 1.2 1 .3.5.5 1 .5 1.5v15.5a2.7 2.7 0 0 1-1.6 2.4l-13.1 6-.6.2a1.4 1.4 0 0 1-1 0l-.6-.1-14.4-6a2.7 2.7 0 0 1-1.7-2.6v-15.4a2.7 2.7 0 0 1 1.7-2.5l13.7-6ZM187 129v14l12.8 5.5v-14.1L187 129Zm15.7 5.4v14L214 143v-14l-4.7 2.1-.2.1-6.6 3Zm6.1-6 3.4-1.5-11.6-5-3 1.2 11.2 5.3Zm-14.5-3.8 11.2 5.4-4.3 2-12-5.2 5-2.2Z" fill="#fff"/><path d="M192.5 177h-2.1V169l-.7.7-1.2 1-1-1.3 3.2-2.6h1.8v10Zm9.7-5a7 7 0 0 1-.9 3.8c-.6.8-1.4 1.3-2.6 1.3a3 3 0 0 1-2.6-1.3c-.6-1-1-2.2-1-3.9 0-1.7.4-3 1-3.9.5-.8 1.4-1.2 2.6-1.2a3 3 0 0 1 2.6 1.3c.6.9.9 2.1.9 3.8Zm-5 0c0 1.1.2 2 .4 2.6.2.5.6.8 1 .8.6 0 1-.3 1.1-.9.3-.5.4-1.4.4-2.6 0-1.2-.1-2-.4-2.6-.2-.6-.5-.8-1-.8s-.9.2-1 .8c-.3.5-.4 1.4-.4 2.6Zm11-3.5a2 2 0 0 0-1.4.5c-.4.3-.6.8-.7 1.4h2.8v1.2H206v.8h2.4v1.2h-2.3c.2 1.1 1 1.7 2.2 1.7.7 0 1.3-.1 1.9-.4v1.8c-.5.2-1.2.4-2 .4a4 4 0 0 1-4.1-3.4h-1v-1.3h.8v-.8h-.8v-1.2h1c.1-1 .6-2 1.3-2.6a4 4 0 0 1 2.8-1c.8 0 1.6.2 2.4.6l-.7 1.6-.9-.3a3 3 0 0 0-.8-.2Zm-28 26.9h.8c.6 0 1.1-.2 1.4-.4.4-.2.5-.5.5-1s-.1-.8-.5-1a3 3 0 0 0-1.5-.3h-.6v2.7Zm0 1.7v3.8h-2v-10h2.9c1.3 0 2.3.3 3 .8.6.5 1 1.2 1 2.2 0 .6-.2 1.1-.5 1.6-.3.4-.8.8-1.4 1l3 4.4h-2.4l-2.4-3.8h-1.1Zm11.9 3.8-.4-1-1.2.9c-.3.2-.8.3-1.4.3-.7 0-1.3-.3-1.7-.7-.5-.4-.7-1-.7-1.8s.3-1.4.9-1.8a5 5 0 0 1 2.6-.6h1.3v-.4c0-.7-.4-1.1-1.2-1.1-.6 0-1.3.1-2.2.5l-.7-1.4c1-.5 1.9-.7 3-.7 1 0 1.8.2 2.3.7.6.4.8 1.1.8 2v5.1h-1.4Zm-.6-3.5h-.8c-.6 0-1 .1-1.4.3-.3.2-.4.5-.4 1s.3.8 1 .8c.5 0 .9-.1 1.1-.4.3-.3.5-.6.5-1v-.7Zm8.5-4.3c.9 0 1.6.4 2 1 .6.8.8 1.8.8 3s-.2 2.2-.8 3c-.5.6-1.2 1-2.1 1-.9 0-1.6-.4-2.1-1h-.2l-.3.8h-1.6v-10.6h2v4c.6-.8 1.3-1.2 2.3-1.2Zm-.7 1.7c-.5 0-1 .2-1.1.5-.3.3-.4.8-.4 1.5v.3c0 .8.1 1.4.3 1.7.3.4.7.6 1.2.6.4 0 .8-.2 1-.6.3-.4.4-1 .4-1.7a3 3 0 0 0-.4-1.7c-.2-.4-.6-.6-1-.6Zm10.1 6.1-.4-1-1.1.9c-.4.2-.9.3-1.5.3-.7 0-1.3-.3-1.7-.7-.4-.4-.6-1-.6-1.8s.2-1.4.8-1.8a5 5 0 0 1 2.6-.6h1.3v-.4c0-.7-.4-1.1-1.2-1.1-.6 0-1.3.1-2.1.5l-.7-1.4c.8-.5 1.8-.7 2.9-.7 1 0 1.8.2 2.4.7.5.4.8 1.1.8 2v5.1h-1.5Zm-.6-3.5h-.8c-.6 0-1 .1-1.4.3-.3.2-.4.5-.4 1s.3.8 1 .8c.5 0 .9-.1 1.2-.4.3-.3.4-.6.4-1v-.7Zm7.4 2c.4 0 .8 0 1.4-.2v1.5c-.6.2-1.2.4-2 .4s-1.4-.3-1.8-.7c-.4-.4-.6-1-.6-1.9v-3.7h-1v-.8l1.2-.7.6-1.7h1.3v1.7h2.2v1.5h-2.2v3.7c0 .3.1.5.3.7l.6.2Zm6.1 0c.4 0 .8 0 1.3-.2v1.5c-.5.2-1.1.4-1.9.4-.8 0-1.4-.3-1.8-.7-.4-.4-.6-1-.6-1.9v-3.7h-1v-.8l1.2-.7.6-1.7h1.3v1.7h2.2v1.5h-2.2v3.7c0 .3.1.5.3.7l.6.2Z" fill="#fff"/><path fill-rule="evenodd" clip-rule="evenodd" d="M272.4 119.2a2.7 2.7 0 0 1 2.2 0l13.7 6c.5.2.9.6 1.2 1 .3.5.5 1 .5 1.5v15.5a2.7 2.7 0 0 1-1.6 2.4l-13.1 6-.6.2a1.4 1.4 0 0 1-1 0l-.6-.1-14.4-6a2.7 2.7 0 0 1-1.7-2.6v-15.4a2.7 2.7 0 0 1 1.7-2.5l13.7-6ZM260 129v14l12.8 5.5v-14.1L260 129Zm15.7 5.4v14L287 143v-14l-4.7 2.1-.2.1-6.6 3Zm6.1-6 3.4-1.5-11.6-5-3 1.2 11.2 5.3Zm-14.5-3.8 11.2 5.4-4.3 2-12-5.2 5-2.2Z" fill="#fff"/><path d="M265.5 177h-2.1V169l-.7.7-1.2 1-1-1.3 3.2-2.6h1.8v10Zm9.7-5a7 7 0 0 1-.9 3.8c-.6.8-1.4 1.3-2.6 1.3a3 3 0 0 1-2.6-1.3c-.6-1-1-2.2-1-3.9 0-1.7.4-3 1-3.9.5-.8 1.4-1.2 2.6-1.2a3 3 0 0 1 2.6 1.3c.6.9.9 2.1.9 3.8Zm-5 0c0 1.1.2 2 .4 2.6.2.5.6.8 1 .8.6 0 1-.3 1.1-.9.3-.5.4-1.4.4-2.6 0-1.2-.1-2-.4-2.6-.2-.6-.5-.8-1-.8s-.9.2-1 .8c-.3.5-.4 1.4-.4 2.6Zm11-3.5a2 2 0 0 0-1.4.5c-.4.3-.6.8-.7 1.4h2.8v1.2H279v.8h2.4v1.2h-2.3c.2 1.1 1 1.7 2.2 1.7.7 0 1.3-.1 1.9-.4v1.8c-.5.2-1.2.4-2 .4a4 4 0 0 1-4.1-3.4h-1v-1.3h.8v-.8h-.8v-1.2h1c.1-1 .6-2 1.3-2.6a4 4 0 0 1 2.8-1c.8 0 1.6.2 2.4.6l-.7 1.6-.9-.3a3 3 0 0 0-.8-.2Zm-28 26.9h.8c.6 0 1.1-.2 1.4-.4.4-.2.5-.5.5-1s-.1-.8-.5-1a3 3 0 0 0-1.5-.3h-.6v2.7Zm0 1.7v3.8h-2v-10h2.9c1.3 0 2.3.3 3 .8.6.5 1 1.2 1 2.2 0 .6-.2 1.1-.5 1.6-.3.4-.8.8-1.4 1l3 4.4h-2.4l-2.4-3.8h-1.1Zm11.9 3.8-.4-1-1.2.9c-.3.2-.8.3-1.4.3-.7 0-1.3-.3-1.7-.7-.5-.4-.7-1-.7-1.8s.3-1.4.9-1.8a5 5 0 0 1 2.5-.6h1.4v-.4c0-.7-.4-1.1-1.2-1.1-.6 0-1.3.1-2.2.5l-.7-1.4c1-.5 1.9-.7 3-.7 1 0 1.8.2 2.3.7.6.4.8 1.1.8 2v5.1h-1.4Zm-.6-3.5h-.8c-.6 0-1 .1-1.4.3-.3.2-.4.5-.4 1s.3.8 1 .8c.5 0 .9-.1 1.1-.4.3-.3.5-.6.5-1v-.7Zm8.5-4.3c.9 0 1.6.4 2 1 .6.8.8 1.8.8 3s-.2 2.2-.8 3c-.5.6-1.2 1-2.1 1-.9 0-1.6-.4-2.1-1h-.2l-.3.8h-1.6v-10.6h2v4c.6-.8 1.3-1.2 2.3-1.2Zm-.7 1.7c-.5 0-1 .2-1.1.5-.3.3-.4.8-.4 1.5v.3c0 .8.1 1.4.3 1.7.3.4.7.6 1.2.6.4 0 .8-.2 1-.6.3-.4.4-1 .4-1.7a3 3 0 0 0-.4-1.7c-.2-.4-.6-.6-1-.6Zm10.1 6.1-.4-1-1.1.9c-.4.2-.9.3-1.5.3-.7 0-1.3-.3-1.7-.7-.4-.4-.6-1-.6-1.8s.2-1.4.8-1.8a5 5 0 0 1 2.6-.6h1.3v-.4c0-.7-.4-1.1-1.2-1.1-.6 0-1.3.1-2.1.5l-.7-1.4c.8-.5 1.8-.7 2.9-.7 1 0 1.8.2 2.4.7.5.4.8 1.1.8 2v5.1h-1.5Zm-.6-3.5h-.8c-.6 0-1 .1-1.4.3-.3.2-.4.5-.4 1s.3.8 1 .8c.5 0 .9-.1 1.2-.4.3-.3.4-.6.4-1v-.7Zm7.4 2c.4 0 .8 0 1.4-.2v1.5c-.6.2-1.2.4-2 .4s-1.4-.3-1.8-.7c-.4-.4-.6-1-.6-1.9v-3.7h-1v-.8l1.2-.7.6-1.7h1.3v1.7h2.2v1.5h-2.2v3.7c0 .3.1.5.3.7l.6.2Zm6.1 0c.4 0 .8 0 1.3-.2v1.5c-.5.2-1.1.4-1.9.4-.8 0-1.4-.3-1.8-.7-.4-.4-.6-1-.6-1.9v-3.7h-1v-.8l1.2-.7.6-1.7h1.3v1.7h2.2v1.5h-2.2v3.7c0 .3.1.5.3.7l.6.2ZM78 235l-.3-1.1-1.1 1-1.4.2c-.8 0-1.3-.2-1.8-.6-.4-.4-.6-1-.6-1.7 0-1.5 1.2-2.3 3.6-2.3h1.3v-.5c0-.6-.1-1-.4-1.3-.2-.3-.6-.5-1.2-.5a5 5 0 0 0-2.1.6l-.4-.9a5.4 5.4 0 0 1 2.6-.6c.9 0 1.5.2 2 .6.4.4.6 1 .6 2v5H78Zm-2.6-.9c.7 0 1.3-.2 1.7-.6.4-.3.6-.9.6-1.6v-.7h-1.2c-.9.1-1.5.3-2 .5-.3.3-.5.6-.5 1.2 0 .4.1.7.4.9.2.2.6.3 1 .3Zm6.8-6.7v4.9c0 .6.2 1 .4 1.4.3.3.8.4 1.3.4.8 0 1.4-.2 1.8-.6.3-.5.5-1.2.5-2.1v-4h1.1v7.5h-.9l-.2-1c-.3.4-.6.7-1 .9-.4.2-.9.3-1.4.3-1 0-1.6-.3-2-.7-.5-.4-.7-1.1-.7-2v-5h1.1Zm11 1h-2v6.5h-1.1v-6.6h-1.3v-.5l1.3-.4v-.4c0-1.9.8-2.8 2.4-2.8.4 0 .9 0 1.4.2l-.3 1-1.1-.3c-.4 0-.8.2-1 .5-.2.3-.3.7-.3 1.3v.5h2v1Zm10 5.5c-.5.8-1.3 1.2-2.4 1.2-1 0-1.7-.4-2.3-1-.5-.7-.8-1.7-.8-3 0-1.1.3-2.1.8-2.8.6-.7 1.3-1 2.3-1 1 0 1.8.4 2.4 1.1v-4.1h1.1v10.6h-1v-1Zm-2.2.2c.7 0 1.3-.2 1.6-.6.4-.4.6-1.1.6-2v-.3c0-1-.2-1.8-.6-2.3-.3-.4-.9-.7-1.6-.7-.7 0-1.2.3-1.6.8-.3.5-.5 1.3-.5 2.2 0 1 .2 1.7.5 2.2.4.5.9.7 1.6.7Zm6.9.8h-1.2v-7.5h1.2v7.5Zm-1.3-9.5c0-.3 0-.5.2-.6l.5-.2.5.2.2.6-.2.6-.5.2-.5-.2-.2-.6Zm6.8 9.7c-1 0-2-.4-2.6-1a4 4 0 0 1-1-2.9c0-1.2.3-2.1 1-2.8a3 3 0 0 1 2.3-1.1c1 0 1.7.3 2.3 1 .5.5.8 1.3.8 2.4v.7H111c0 .9.3 1.5.7 2 .4.4 1 .7 1.8.7a6 6 0 0 0 2.4-.5v1a5.7 5.7 0 0 1-2.5.5Zm-.3-6.9c-.6 0-1 .2-1.4.6-.4.4-.6 1-.7 1.7h4c0-.8-.2-1.3-.5-1.7-.3-.4-.8-.6-1.4-.6Zm11.8 6.9c-1 0-2-.4-2.6-1a4 4 0 0 1-1-2.9c0-1.2.3-2.1 1-2.8a3 3 0 0 1 2.3-1.1c1 0 1.7.3 2.3 1 .5.5.8 1.3.8 2.4v.7h-5.2c0 .9.3 1.5.7 2 .4.4 1 .7 1.8.7a6 6 0 0 0 2.4-.5v1a5.7 5.7 0 0 1-2.5.5Zm-.3-6.9c-.6 0-1 .2-1.4.6-.4.4-.6 1-.7 1.7h4c0-.8-.2-1.3-.5-1.7-.3-.4-.8-.6-1.4-.6Zm8.4-1 1 .2-.2 1h-.8a2 2 0 0 0-1.6.7c-.4.5-.6 1-.6 1.8v4h-1.2v-7.5h1v1.4h.1c.3-.5.7-.8 1-1.1.4-.3.9-.4 1.3-.4Zm7.2 5.7c0 .7-.3 1.2-.8 1.6-.5.4-1.3.6-2.2.6-1 0-1.8-.2-2.3-.5v-1a5.6 5.6 0 0 0 2.3.5c.6 0 1 0 1.4-.3.3-.2.5-.4.5-.8a1 1 0 0 0-.4-.8l-1.5-.7-1.5-.7c-.3-.2-.5-.4-.6-.7-.2-.2-.2-.5-.2-.8 0-.6.2-1.1.7-1.5.5-.3 1.2-.5 2-.5a6 6 0 0 1 2.4.5l-.4 1c-.7-.4-1.4-.6-2-.6-.6 0-1 .1-1.3.3-.2.2-.4.4-.4.7 0 .2 0 .4.2.5l.5.4 1.3.6c.9.3 1.5.6 1.8 1 .3.3.5.7.5 1.2Zm4.2 1.2a4 4 0 0 0 1-.1v.9a3.8 3.8 0 0 1-1.2.2c-1.4 0-2.1-.8-2.1-2.3v-4.5h-1v-.5l1-.5.5-1.6h.6v1.7h2.2v1h-2.2v4.3c0 .5.1.8.4 1 .2.3.5.4.8.4Zm5.7 1c-1 0-2-.4-2.6-1a4 4 0 0 1-1-2.9c0-1.2.4-2.1 1-2.8a3 3 0 0 1 2.3-1.1c1 0 1.7.3 2.3 1 .5.5.8 1.3.8 2.4v.7h-5.2c0 .9.3 1.5.7 2 .4.4 1 .7 1.8.7a6 6 0 0 0 2.4-.5v1a5.7 5.7 0 0 1-2.5.5Zm-.3-6.9c-.6 0-1 .2-1.4.6-.4.4-.6 1-.6 1.7h3.9c0-.8-.2-1.3-.5-1.7-.3-.4-.8-.6-1.4-.6ZM160 235v-4.8c0-.6-.2-1-.5-1.4-.2-.3-.7-.4-1.3-.4-.7 0-1.3.2-1.7.6-.3.4-.5 1.1-.5 2v4h-1.2v-7.5h1l.1 1 1-.8 1.5-.3c.9 0 1.6.2 2 .6.5.5.7 1.2.7 2.1v5H160Zm13.6-2.3H172v2.3h-1v-2.3h-5v-1l4.8-6.7h1.2v6.7h1.5v1Zm-2.6-1V226l-.6 1-3.1 4.5h3.7Zm7.9 3.3v-10h1.2v9h4.4v1h-5.6Zm8.2 0H186v-7.5h1.1v7.5Zm-1.2-9.5c0-.3 0-.5.2-.6l.5-.2.4.2c.2.2.2.3.2.6s0 .4-.2.6l-.4.2-.5-.2-.2-.6Zm6.8 9.7c-1.1 0-2-.4-2.6-1a4 4 0 0 1-1-2.9c0-1.2.3-2.1.9-2.8a3 3 0 0 1 2.4-1.1c1 0 1.7.3 2.2 1 .6.5.9 1.3.9 2.4v.7h-5.2c0 .9.2 1.5.7 2 .4.4 1 .7 1.7.7a6 6 0 0 0 2.4-.5v1a5.8 5.8 0 0 1-2.4.5Zm-.3-6.9c-.6 0-1 .2-1.5.6-.3.4-.5 1-.6 1.7h4c0-.8-.2-1.3-.5-1.7-.4-.4-.8-.6-1.4-.6Zm8.4.1h-2v6.6h-1v-6.6h-1.4v-.5l1.3-.4v-.4c0-1.9.8-2.8 2.4-2.8.4 0 .9 0 1.4.2l-.3 1-1-.3c-.5 0-.8.2-1 .5-.2.3-.3.7-.3 1.3v.5h1.9v1Zm4.5 6.8c-1.1 0-2-.4-2.6-1a4 4 0 0 1-1-2.9c0-1.2.3-2.1 1-2.8a3 3 0 0 1 2.3-1.1c1 0 1.7.3 2.2 1 .6.5.9 1.3.9 2.4v.7h-5.2c0 .9.2 1.5.7 2 .4.4 1 .7 1.7.7a6 6 0 0 0 2.4-.5v1a5.7 5.7 0 0 1-2.4.5Zm-.3-6.9c-.6 0-1 .2-1.4.6-.4.4-.6 1-.7 1.7h4c0-.8-.2-1.3-.5-1.7-.4-.4-.8-.6-1.4-.6Zm8.4-1 1 .2-.2 1h-.9a2 2 0 0 0-1.5.7c-.5.5-.7 1-.7 1.8v4H210v-7.5h1v1.4h.1c.3-.5.6-.8 1-1.1.4-.3.8-.4 1.3-.4Zm3.4.2v4.9c0 .6.1 1 .4 1.4.3.3.7.4 1.3.4.8 0 1.4-.2 1.7-.6.4-.5.6-1.2.6-2.1v-4h1.1v7.5h-1l-.1-1c-.3.4-.6.7-1 .9-.4.2-1 .3-1.4.3-1 0-1.6-.3-2-.7-.5-.4-.8-1.1-.8-2v-5h1.2Zm12.6 7.5v-4.8c0-.6-.1-1-.4-1.4-.3-.3-.7-.4-1.3-.4-.8 0-1.3.2-1.7.6-.4.4-.6 1.1-.6 2v4h-1v-7.5h.8l.2 1 1-.8 1.5-.3c.9 0 1.5.2 2 .6.4.5.7 1.2.7 2.1v5h-1.2Zm9.6-7.5v.7l-1.3.2.3.6.1 1c0 .6-.2 1.2-.7 1.7a3 3 0 0 1-2 .6h-.7c-.5.2-.7.5-.7 1 0 .1 0 .3.2.4l.9.1h1.3a3 3 0 0 1 1.9.5c.4.4.6.9.6 1.5 0 .9-.3 1.5-1 2-.6.4-1.6.6-2.9.6a4 4 0 0 1-2.2-.6c-.6-.3-.8-.8-.8-1.5 0-.5.1-.9.4-1.2.3-.3.7-.6 1.2-.7l-.4-.4a1 1 0 0 1-.2-.6c0-.3 0-.5.2-.7l.7-.6a2 2 0 0 1-1-.8c-.2-.4-.3-.9-.3-1.3 0-.9.2-1.5.7-2a3 3 0 0 1 2-.6l1.2.1h2.5Zm-6 8.8c0 .4.2.7.6.9.3.2.8.3 1.5.3a4 4 0 0 0 2-.4c.5-.3.8-.7.8-1.2 0-.4-.2-.7-.4-.8-.3-.2-.7-.3-1.4-.3h-1.4c-.5 0-1 .2-1.2.4-.3.3-.4.6-.4 1Zm.7-6.4c0 .5.1 1 .4 1.2.3.3.7.4 1.3.4 1 0 1.6-.5 1.6-1.6s-.5-1.7-1.7-1.7c-.5 0-.9.2-1.2.4-.3.3-.4.8-.4 1.3Zm10 5.3c-1 0-2-.4-2.6-1a4 4 0 0 1-1-2.9c0-1.2.4-2.1 1-2.8a3 3 0 0 1 2.4-1.1c.9 0 1.6.3 2.2 1 .5.5.8 1.3.8 2.4v.7h-5.2c0 .9.3 1.5.7 2 .4.4 1 .7 1.8.7a6 6 0 0 0 2.4-.5v1a5.8 5.8 0 0 1-2.5.5Zm-.3-6.9c-.6 0-1 .2-1.4.6-.4.4-.6 1-.6 1.7h3.9c0-.8-.2-1.3-.5-1.7-.3-.4-.8-.6-1.4-.6Zm10.2 6.7v-4.8c0-.6-.2-1-.4-1.4-.3-.3-.8-.4-1.4-.4-.7 0-1.3.2-1.7.6-.3.4-.5 1.1-.5 2v4h-1.2v-7.5h1l.2 1c.2-.3.6-.6 1-.8.4-.2.9-.3 1.4-.3.9 0 1.6.2 2 .6.5.5.7 1.2.7 2.1v5h-1.1Z" fill="#fff"/></svg>