<svg width="12" height="12" viewBox="0 0 12 12" fill="none" xmlns="http://www.w3.org/2000/svg">
<path d="M6 0C2.68631 0 0 2.68631 0 6C0 9.31369 2.68631 12 6 12C9.31369 12 12 9.31384 12 6C12 2.68616 9.31369 0 6 0ZM5.97007 9.35534C5.97007 9.35534 5.69167 9.54042 5.50136 9.53958C5.48442 9.54734 5.4744 9.55186 5.4744 9.55186L5.47482 9.53958C5.43487 9.53774 5.39464 9.53209 5.35412 9.52193L5.29398 9.50711C4.96165 9.42466 4.78574 9.09515 4.86847 8.76297L5.33111 6.89788L5.53991 6.05548C5.73417 5.27337 4.92395 6.22179 4.75779 5.86151C4.64809 5.62334 5.388 5.12358 5.92856 4.74678C5.92856 4.74678 6.20668 4.56198 6.39713 4.56268C6.41421 4.55478 6.42424 4.5504 6.42424 4.5504L6.42353 4.56268C6.46377 4.56452 6.504 4.57017 6.54452 4.58019L6.60466 4.59515C6.93699 4.6776 7.13944 5.01374 7.05699 5.34593L6.59449 7.21115L6.38527 8.05355C6.19129 8.83567 6.98809 7.88358 7.15412 8.24428C7.26381 8.48217 6.51049 8.97854 5.97007 9.35534ZM7.14268 3.5256C7.0272 3.99078 6.55652 4.2744 6.09148 4.15892C5.62616 4.04344 5.34254 3.57289 5.45802 3.10758C5.57351 2.64226 6.04419 2.35878 6.50922 2.47426C6.97454 2.5896 7.25802 3.06028 7.14268 3.5256Z" fill="#3A3A3A"/>
</svg>
