<svg width="19" height="18" viewBox="0 0 19 18" fill="none" xmlns="http://www.w3.org/2000/svg">
<path d="M9.84783 7.93854L1.6287 4.49165M9.84783 7.93854L17.3741 4.49515M9.84783 7.93854V17M6.15183 2.40378L13.8743 6.09922M17.5 4.89705C17.5001 4.76075 17.4606 4.6274 17.3865 4.51336C17.3123 4.39931 17.2067 4.30952 17.0826 4.255L9.77826 1.05807C9.69043 1.01977 9.59572 1 9.5 1C9.40428 1 9.30957 1.01977 9.22174 1.05807L1.91739 4.255C1.79328 4.30952 1.68768 4.39931 1.61354 4.51336C1.53939 4.6274 1.49993 4.76075 1.5 4.89705V13.0728C1.49999 13.211 1.54061 13.3461 1.61674 13.4611C1.69287 13.5761 1.80111 13.6659 1.92783 13.7191L9.56957 16.9237C9.65796 16.9608 9.75301 16.9792 9.84877 16.9776C9.94454 16.976 10.0389 16.9546 10.1261 16.9146L17.0924 13.7261C17.2139 13.6704 17.3169 13.5808 17.3892 13.4678C17.4615 13.3548 17.5 13.2233 17.5 13.0889V4.89705Z" stroke="#595959" stroke-width="1.5" stroke-linecap="round" stroke-linejoin="round"/>
</svg>
