<svg width="16" height="17" viewBox="0 0 16 17" fill="none" xmlns="http://www.w3.org/2000/svg">
<path d="M13.3964 4.19255C13.3962 4.14819 13.3837 4.10476 13.3604 4.067C13.3371 4.02923 13.3039 3.99859 13.2644 3.9784C13.2249 3.95821 13.1807 3.94926 13.1364 3.95252C13.0922 3.95577 13.0497 3.97112 13.0136 3.99687L12.0625 4.67879L11.9876 4.73255C10.9628 3.70999 9.55628 3.07031 7.99756 3.07031C5.87212 3.07031 4.01708 4.24695 3.047 5.98247L3.05084 5.98455C3.00788 6.07659 3.00094 6.18137 3.03138 6.27826C3.06182 6.37516 3.12745 6.45715 3.21532 6.50807L4.51708 7.25959C4.56342 7.28639 4.6146 7.30379 4.66767 7.3108C4.72074 7.31781 4.77468 7.31429 4.82639 7.30044C4.8781 7.28659 4.92658 7.26269 4.96904 7.23009C5.01151 7.19749 5.04713 7.15685 5.07388 7.11047C5.07484 7.10871 5.07532 7.10679 5.07628 7.10503C5.65084 6.08039 6.74636 5.38551 8.00252 5.38551C8.78316 5.38551 9.49884 5.65687 10.0688 6.10551L9.9086 6.22055L8.95692 6.90247C8.92097 6.92844 8.89286 6.96379 8.87565 7.00466C8.85845 7.04553 8.85282 7.09035 8.85938 7.13421C8.86594 7.17806 8.88443 7.21927 8.91284 7.25332C8.94124 7.28738 8.97847 7.31296 9.02044 7.32727L13.092 8.71431C13.1283 8.72662 13.1671 8.73008 13.2051 8.7244C13.2431 8.71872 13.2792 8.70407 13.3104 8.68165C13.3416 8.65924 13.367 8.62971 13.3845 8.59551C13.402 8.56132 13.4111 8.52344 13.411 8.48503L13.3964 4.19255Z" fill="#0050B3"/>
<path d="M12.7849 10.3344L12.7845 10.3342L11.4828 9.5827C11.4364 9.5559 11.3853 9.5385 11.3322 9.53149C11.2791 9.52448 11.2252 9.528 11.1735 9.54185C11.1218 9.5557 11.0733 9.57961 11.0308 9.6122C10.9884 9.6448 10.9527 9.68545 10.926 9.73182C10.925 9.73358 10.9245 9.7355 10.9236 9.73726C10.349 10.7619 9.25351 11.4568 7.99735 11.4568C7.21671 11.4568 6.50103 11.1854 5.93111 10.7368L6.09127 10.6217L7.04295 9.93982C7.0789 9.91386 7.10701 9.8785 7.12421 9.83763C7.14142 9.79676 7.14705 9.75194 7.14049 9.70809C7.13393 9.66423 7.11544 9.62302 7.08703 9.58897C7.05862 9.55492 7.0214 9.52934 6.97943 9.51502L2.90791 8.12798C2.87152 8.11567 2.83273 8.11221 2.79474 8.11789C2.75675 8.12357 2.72066 8.13823 2.68947 8.16064C2.65828 8.18306 2.63288 8.21259 2.61539 8.24678C2.59789 8.28098 2.5888 8.31885 2.58887 8.35726L2.60359 12.6497C2.60387 12.6941 2.61633 12.7375 2.63961 12.7753C2.66288 12.8131 2.69608 12.8437 2.73558 12.8639C2.77508 12.8841 2.81937 12.893 2.86361 12.8898C2.90785 12.8865 2.95035 12.8712 2.98647 12.8454L3.93751 12.1635L4.01239 12.1097C5.03719 13.1323 6.44375 13.772 8.00247 13.772C10.1279 13.772 11.9829 12.5953 12.953 10.8598L12.949 10.8579C12.992 10.7659 12.999 10.6611 12.9686 10.5643C12.9382 10.4674 12.8727 10.3854 12.7849 10.3344Z" fill="#0050B3"/>
</svg>
