<svg fill="none" height="14" viewBox="0 0 16 14" width="16" xmlns="http://www.w3.org/2000/svg"><path d="m8.88699.657597 1.77521 3.323933c.0772.19943.3088.33239.5403.39887l4.0136.53183c.6947 0 .9262.66478.4631 1.06365l-2.933 2.59267c-.1544.13295-.2315.39887-.2315.5983l.6946 3.58985c.0772.5318-.5403.9972-1.0806.7313l-3.62763-1.7285c-.23155-.1329-.46311-.1329-.69466 0l-3.62767 1.7285c-.54029.2659-1.23495-.133-1.08058-.7313l.69466-3.58985c.07718-.19943-.07719-.46535-.23155-.5983l-2.933014-2.59267c-.385922-.39887-.154369-1.06365.463104-1.13013l4.01359-.53183c.23156 0 .46311-.19944.5403-.39887l1.77524-3.323932c.38592-.465349 1.15776-.46535 1.4665.066479z" fill="#eebf46"/></svg>